SplineFontDB: 3.2
FontName: BatmanBeatthehellOuttaMe
FullName: Batman Beat the hell Outta Me
FamilyName: Batman Beat the hell Outta Me
Weight: Normal
Copyright: (C) Copyright 1997-2015 Terrence Curran - grilledcheese.com
Version: 2016-01-28
ItalicAngle: 0
UnderlinePosition: -113
UnderlineWidth: 20
Ascent: 800
Descent: 200
InvalidEm: 0
sfntRevision: 0x00010000
LayerCount: 2
Layer: 0 0 "Back" 1
Layer: 1 0 "Fore" 0
XUID: [1021 270 -1463357204 8193841]
UniqueID: 4123775
FSType: 4
OS2Version: 3
OS2_WeightWidthSlopeOnly: 0
OS2_UseTypoMetrics: 1
CreationTime: 1454057041
ModificationTime: 1568213891
PfmFamily: 81
TTFWeight: 400
TTFWidth: 5
LineGap: 0
VLineGap: 0
Panose: 0 0 0 0 0 0 0 0 0 0
OS2TypoAscent: 800
OS2TypoAOffset: 0
OS2TypoDescent: -200
OS2TypoDOffset: 0
OS2TypoLinegap: 0
OS2WinAscent: 1000
OS2WinAOffset: 0
OS2WinDescent: 0
OS2WinDOffset: 0
HheadAscent: 800
HheadAOffset: 0
HheadDescent: -200
HheadDOffset: 0
OS2SubXSize: 650
OS2SubYSize: 600
OS2SubXOff: 0
OS2SubYOff: 75
OS2SupXSize: 650
OS2SupYSize: 600
OS2SupXOff: 0
OS2SupYOff: 350
OS2StrikeYSize: 20
OS2StrikeYPos: 300
OS2Vendor: 'pyrs'
OS2CodePages: 00000001.00000000
OS2UnicodeRanges: 00000000.00000000.00000000.00000000
Lookup: 258 0 0 "'kern' Horizontal Kerning in Latin lookup 0" { "'kern' Horizontal Kerning in Latin lookup 0 subtable"  } ['kern' ('latn' <'dflt' > ) ]
MarkAttachClasses: 1
DEI: 91125

StartChar: quotedbl
Encoding: 34 34 3
Width: 789
Flags: W
HStem: 1 99<293 311 293 499.5> 1 228<290 581> 245 134<553.5 645> 391 198 578 190<475.5 488>
VStem: 147 16 147 137<277 277 277 454> 147 144<127 454> 565 209<395 415 415 415> 578 196<460.5 468> 587 187<278 580.5> 706 68<309 331.5>
LayerCount: 2
Fore
SplineSet
774 384 m 0xac10
 774 172 604 1 395 1 c 0
 185 1 15 172 15 384 c 0
 15 596 185 768 395 768 c 0
 604 768 774 596 774 384 c 0xac10
706 328 m 0
 706 335 675 411 654 411 c 0
 641 411 592 400 565 395 c 1x7410
 565 415 l 2
 566 428 578 453 578 468 c 0xb420
 577 495 587 553 587 565 c 0xb440
 587 596 424 652 403 672 c 1
 136 469 l 1
 126 250 l 2
 126 237 137 224 140 221 c 0
 162 203 202 184 223 168 c 0
 251 146 279 120 293 100 c 1
 311 100 l 1
 392 180 480 251 558 327 c 0
 565 335 563 356 570 362 c 0
 602 386 601 379 625 379 c 0
 665 379 684 357 684 317 c 0
 684 284 641 206 618 201 c 1
 602 226 618 245 574 245 c 0
 533 245 499 208 455 175 c 1
 435 175 425 160 418 144 c 1
 440 141 409 119 405 112 c 1
 421 107 423 124 434 125 c 1
 436 132 433 116 444 118 c 0
 450 119 427 97 433 100 c 1
 444 90 453 126 491 135 c 0
 503 137 487 167 482 177 c 1
 503 198 542 229 566 229 c 0xb480
 596 229 587 212 610 186 c 1
 655 187 706 290 706 328 c 0
480 538 m 1
 426 489 378 434 325 391 c 1
 352 436 409 477 413 510 c 1
 425 523 458 551 473 556 c 1
 473 551 474 543 480 538 c 1
431 591 m 1
 372 548 304 498 245 449 c 1
 245 455 244 465 250 468 c 0
 304 512 359 560 419 610 c 1
 419 605 426 597 431 591 c 1
555 560 m 1
 491 478 381 390 299 309 c 1
 156 465 l 1
 173 488 338 600 340 600 c 0
 353 600 334 589 348 589 c 0
 359 589 388 628 415 649 c 1
 437 634 l 1
 361 584 264 514 195 457 c 1
 203 442 220 428 235 428 c 0
 248 428 235 422 240 417 c 1
 340 518 393 556 482 605 c 1
 491 602 501 582 512 569 c 1
 507 569 494 578 482 578 c 0xa910
 469 578 340 457 270 397 c 1
 279 380 303 359 320 363 c 1
 373 410 461 527 541 567 c 1
 541 567 549 560 555 560 c 1
512 422 m 0
 512 410 491 350 486 322 c 0
 481 292 428 260 411 235 c 0
 402 223 397 200 385 188 c 0
 364 166 336 143 304 116 c 1
 304 153 297 226 297 239 c 0
 297 249 297 281 298 295 c 1
 361 357 452 438 500 443 c 1
 500 438 512 436 512 422 c 0
485 146 m 1
 471 132 l 1
 466 137 449 137 444 126 c 1
 444 132 455 143 450 153 c 1
 444 148 437 151 431 156 c 1
 441 162 459 160 485 146 c 1
284 277 m 2xb210
 291 127 l 1
 246 158 146 233 147 243 c 2
 147 454 l 1
 162 437 285 327 284 277 c 2xb210
237 246 m 1
 238 272 l 1
 228 284 214 284 214 289 c 0
 214 303 219 329 219 344 c 0
 216 347 217 343 210 349 c 1
 208 340 209 302 207 294 c 1
 190 294 173 291 163 286 c 1xb110
 168 265 170 251 168 245 c 1
 181 248 202 234 208 230 c 1
 215 234 226 240 237 246 c 1
215 278 m 0
 217 275 210 275 207 273 c 0
 202 273 189 279 184 279 c 2
 184 279 197 280 197 285 c 1
 197 283 214 280 215 278 c 0
228 270 m 1
 229 267 l 1
 224 266 215 264 209 260 c 1xb410
 209 240 l 1
 206 240 l 1
 205 258 l 1
 192 264 187 269 173 271 c 1
 175 275 l 1
 186 273 200 267 206 263 c 1
 214 267 219 269 228 270 c 1
EndSplineSet
EndChar

StartChar: numbersign
Encoding: 35 35 4
Width: 786
Flags: W
HStem: 33 50<304.5 480 304.5 494> 190 249<230 326 182 618> 363 76<230 618 230 618> 363 250<230 326 182 618 230 230> 719 50<304.5 480>
VStem: 24 50<313.5 489 313.5 502.5> 182 48<336 363 439 493> 182 144<190 204 600 613> 664 14<297 324.5 478 505> 710 50<313.5 489>
LayerCount: 2
Fore
SplineSet
230 439 m 1xaec0
 618 439 l 2
 640 439 664 451 664 505 c 1
 678 505 l 1
 678 297 l 1
 664 297 l 1
 664 352 640 363 618 363 c 2
 230 363 l 1
 230 309 227 251 257 228 c 0
 278 214 302 209 326 204 c 1xaec0
 326 190 l 1
 182 190 l 1
 182 613 l 1x9dc0
 326 613 l 1
 326 600 l 1
 227 583 230 546 230 493 c 2xcdc0
 230 439 l 1xaec0
24 401 m 0
 24 604 189 769 392 769 c 0
 596 769 760 604 760 401 c 0
 760 198 596 33 392 33 c 0
 189 33 24 198 24 401 c 0
74 401 m 0
 74 226 217 83 392 83 c 0
 568 83 710 226 710 401 c 0
 710 577 568 719 392 719 c 0
 217 719 74 577 74 401 c 0
EndSplineSet
EndChar

StartChar: dollar
Encoding: 36 36 5
Width: 786
Flags: W
HStem: 33 50 719 50
VStem: 24 50 24 148 710 50
LayerCount: 2
Fore
SplineSet
250 313 m 1xc8
 525 588 l 2
 540 603 549 628 511 667 c 1
 521 677 l 1
 668 530 l 1
 658 519 l 1
 619 558 595 549 579 534 c 2
 305 259 l 1
 343 221 381 178 419 184 c 0
 444 187 465 202 485 214 c 1
 495 205 l 1
 392 103 l 1
 93 402 l 1
 195 504 l 1
 205 494 l 1
 147 413 175 388 212 351 c 2
 250 313 l 1xc8
132 141 m 0
 -12 285 -12 518 132 661 c 0
 276 805 509 805 653 661 c 0
 796 518 796 285 653 141 c 0
 509 -3 276 -3 132 141 c 0
167 176 m 0
 292 52 493 52 617 176 c 0
 742 300 742 502 617 626 c 0
 493 750 292 750 167 626 c 0
 43 502 43 300 167 176 c 0
EndSplineSet
EndChar

StartChar: percent
Encoding: 37 37 6
Width: 786
Flags: W
HStem: 38 50<293 469 293 482.5> 195 48<289 343 420 447> 195 144<169 183 579 592 169 183> 678 14<277 304.5 458 485> 724 50<293 469>
VStem: 13 50<318 494 318 507.5> 169 251<243 243 243 339 243 339> 343 76<243 643 632 643> 343 249<243 339 195 632> 699 50<318 494>
LayerCount: 2
Fore
SplineSet
343 243 m 1xdd40
 343 632 l 2
 343 654 332 678 277 678 c 1
 277 692 l 1
 485 692 l 1
 485 678 l 1
 431 678 419 654 419 632 c 2
 420 243 l 1xdd40
 474 243 531 240 554 271 c 0
 569 291 573 316 579 339 c 1xbe40
 592 339 l 1
 592 195 l 1
 169 195 l 1xbcc0
 169 339 l 1
 183 339 l 1
 199 241 237 243 289 243 c 2xde40
 343 243 l 1xdd40
381 38 m 0
 178 38 13 203 13 406 c 0
 13 609 178 774 381 774 c 0
 584 774 749 609 749 406 c 0
 749 203 584 38 381 38 c 0
381 88 m 0
 557 88 699 230 699 406 c 0
 699 582 557 724 381 724 c 0
 205 724 63 582 63 406 c 0
 63 230 205 88 381 88 c 0
EndSplineSet
EndChar

StartChar: ampersand
Encoding: 38 38 7
Width: 786
Flags: W
HStem: 27 50<288.5 464 288.5 477.5> 183 250<443 539 150 587 443 443> 357 76<139.5 539 150 539> 357 249<443 539> 713 50<288.5 464>
VStem: 8 50<307 483 307 496.5> 90 15<291 318 471.5 499> 443 144<183 196 196 196 592 606 183 606> 539 48<303 357 357 357 433 460> 694 50<307 483>
LayerCount: 2
Fore
SplineSet
539 357 m 1xaec0
 150 357 l 2
 129 357 105 345 105 291 c 1
 90 291 l 1
 90 499 l 1
 105 499 l 1
 105 444 129 433 150 433 c 2
 539 433 l 1
 539 487 542 545 511 568 c 0
 491 582 466 587 443 592 c 1xaec0
 443 606 l 1
 587 606 l 1
 587 183 l 1xcf40
 443 183 l 1
 443 196 l 1
 541 213 539 250 539 303 c 2x9f40
 539 357 l 1xaec0
744 395 m 0
 744 192 579 27 376 27 c 0
 173 27 8 192 8 395 c 0
 8 598 173 763 376 763 c 0
 579 763 744 598 744 395 c 0
694 395 m 0
 694 571 552 713 376 713 c 0
 201 713 58 571 58 395 c 0
 58 219 201 77 376 77 c 0
 552 77 694 219 694 395 c 0
EndSplineSet
EndChar

StartChar: quotesingle
Encoding: 39 39 8
Width: 789
Flags: W
HStem: -14 30<294.5 495 294.5 503.5> -14 114<293 311 293 503.5> -14 243<286 581> -14 277 245 134<553.5 645> 391 198 578 205<475.5 488> 753 30<294.5 495>
VStem: 147 16 147 62<243 260 240 454 243 243> 206 85<240 240> 214 77<286.5 296> 237 54<246 246> 578 211<460.5 468> 587 202<274 580.5> 706 83<309 331.5>
LayerCount: 2
Fore
SplineSet
706 328 m 0x2d89
 706 290 655 187 610 186 c 1
 587 212 596 229 566 229 c 0x2d89
 542 229 503 198 482 177 c 1
 487 167 503 137 491 135 c 0
 453 126 444 90 433 100 c 1
 427 97 450 119 444 118 c 0
 433 116 436 132 434 125 c 1
 423 124 421 107 405 112 c 1
 409 119 440 141 418 144 c 1
 425 160 435 175 455 175 c 1
 499 208 533 245 574 245 c 0
 618 245 602 226 618 201 c 1
 641 206 684 284 684 317 c 0
 684 357 665 379 625 379 c 0
 601 379 602 386 570 362 c 0
 563 356 565 335 558 327 c 0
 480 251 392 180 311 100 c 1
 293 100 l 1
 279 120 251 140 223 162 c 0
 202 178 159 203 137 221 c 0
 134 224 129 234 129 247 c 2
 136 469 l 1
 403 672 l 1
 424 652 587 596 587 565 c 0x4d8a
 587 553 577 495 578 468 c 0x2d8c
 578 453 566 428 565 415 c 2
 565 395 l 1
 592 400 641 411 654 411 c 0
 675 411 706 335 706 328 c 0x2d89
480 538 m 1
 474 543 473 551 473 556 c 1
 458 551 425 523 413 510 c 1
 409 477 352 436 325 391 c 1
 378 434 426 489 480 538 c 1
431 591 m 1
 426 597 419 605 419 610 c 1
 359 560 304 512 250 468 c 0
 244 465 245 455 245 449 c 1
 304 498 372 548 431 591 c 1
555 560 m 1
 549 560 541 567 541 567 c 1
 461 527 373 410 320 363 c 1
 303 359 279 380 270 397 c 1
 340 457 469 578 482 578 c 0x2a89
 494 578 507 569 512 569 c 1
 501 582 491 602 482 605 c 1
 393 556 340 518 240 417 c 1
 235 422 248 428 235 428 c 0
 220 428 203 442 195 457 c 1
 264 514 361 584 437 634 c 1
 415 649 l 1
 388 628 359 589 348 589 c 0
 334 589 353 600 340 600 c 0
 338 600 173 488 156 465 c 1
 299 309 l 1
 381 390 491 478 555 560 c 1
512 422 m 0
 512 436 500 438 500 443 c 1
 452 438 361 357 298 295 c 1
 297 281 297 249 297 239 c 0
 297 226 304 153 304 116 c 1
 336 143 364 166 385 188 c 0
 397 200 402 223 411 235 c 0
 428 260 481 292 486 322 c 0
 491 350 512 410 512 422 c 0
485 146 m 1
 459 160 441 162 431 156 c 1
 437 151 444 148 450 153 c 1
 455 143 444 132 444 126 c 1
 449 137 466 137 471 132 c 1
 485 146 l 1
291 127 m 1
 291 275 l 2
 291 325 162 437 147 454 c 1
 147 243 l 2
 146 233 246 158 291 127 c 1
238 272 m 1
 237 246 l 1x2d49
 226 240 215 234 208 230 c 1
 202 234 181 248 168 245 c 1
 170 251 168 265 163 286 c 1
 173 291 190 294 207 294 c 1
 209 302 208 340 210 349 c 1
 217 343 216 347 219 344 c 0
 219 329 214 303 214 289 c 0x2d91
 214 284 228 284 238 272 c 1
215 278 m 0
 214 280 197 283 197 285 c 1
 197 280 184 279 184 279 c 2
 189 279 202 273 207 273 c 0
 210 275 217 275 215 278 c 0
229 267 m 1
 228 270 l 1
 219 269 214 267 206 263 c 1
 200 267 186 273 175 275 c 1
 173 271 l 1
 187 269 192 264 205 258 c 1
 206 240 l 1x15a1
 209 240 l 1
 209 260 l 1
 215 264 224 266 229 267 c 1
395 -14 m 0
 177 -14 0 164 0 384 c 0
 0 604 177 783 395 783 c 0
 612 783 789 604 789 384 c 0
 789 164 612 -14 395 -14 c 0
395 16 m 0
 595 16 759 181 759 384 c 0
 759 588 595 753 395 753 c 0
 194 753 30 588 30 384 c 0
 30 181 194 16 395 16 c 0
EndSplineSet
EndChar

StartChar: parenleft
Encoding: 40 40 9
Width: 709
Flags: W
HStem: -232 21G<452 452>
VStem: 35 690
LayerCount: 2
Fore
SplineSet
725 881 m 1
 707 851 l 1
 562 1015 l 1
 648 565 l 1
 308 702 l 1
 596 382 l 1
 205 423 l 1
 407 313 l 1
 157 114 l 1
 544 166 l 1
 497 -169 l 1
 705 -57 l 1
 721 -88 l 1
 452 -232 l 1
 503 125 l 1
 35 62 l 1
 344 307 l 1
 36 476 l 1
 509 427 l 1
 180 791 l 1
 597 623 l 1
 491 1151 l 1
 725 881 l 1
EndSplineSet
EndChar

StartChar: parenright
Encoding: 41 41 10
Width: 970
Flags: W
HStem: 177 39
LayerCount: 2
Fore
SplineSet
-3 844 m 1
 -3 887 l 1
 247 1037 l 1
 89 573 l 1
 535 707 l 1
 254 400 l 1
 905 177 l 1
 247 190 l 1
 740 -120 l 1
 228 -13 l 1
 260 -268 l 1
 -17 -86 l 1
 2 -57 l 1
 216 -197 l 1
 187 31 l 1
 556 -46 l 1
 122 227 l 1
 682 216 l 1
 192 384 l 1
 423 637 l 1
 27 518 l 1
 169 949 l 1
 -3 844 l 1
EndSplineSet
EndChar

StartChar: asterisk
Encoding: 42 42 11
Width: 786
Flags: W
HStem: 27 50 713 50
VStem: 8 50 597 147 694 50
LayerCount: 2
Fore
SplineSet
518 483 m 1xe0
 244 208 l 2
 228 193 219 168 258 129 c 1
 248 119 l 1
 100 266 l 1
 110 277 l 1
 149 238 174 247 189 262 c 2
 464 537 l 1
 426 575 387 618 349 612 c 0
 325 609 304 594 284 582 c 1
 274 591 l 1
 376 693 l 1
 675 394 l 1
 573 292 l 1
 564 302 l 1
 622 383 593 408 556 445 c 2
 518 483 l 1xe0
636 655 m 0
 780 511 780 278 636 135 c 0
 493 -9 260 -9 116 135 c 0
 -28 278 -28 511 116 655 c 0
 260 799 493 799 636 655 c 0
601 620 m 0
 477 744 275 744 151 620 c 0
 27 496 27 294 151 170 c 0
 275 46 477 46 601 170 c 0
 725 294 725 496 601 620 c 0
EndSplineSet
EndChar

StartChar: plus
Encoding: 43 43 12
Width: 789
Flags: W
HStem: -14 30<294.5 495 294.5 503.5> -14 114<293 311 293 503.5> -14 243<286 581> -14 277 245 134<553.5 645> 391 198 578 205<475.5 488> 753 30<294.5 495>
VStem: 147 16 147 62<243 260 240 454 243 243> 206 85<240 240> 214 77<286.5 296> 237 54<246 246> 578 211<460.5 468> 587 202<274 580.5> 706 83<309 331.5>
LayerCount: 2
Fore
SplineSet
706 328 m 0x2d89
 706 290 655 187 610 186 c 1
 587 212 596 229 566 229 c 0x2d89
 542 229 503 198 482 177 c 1
 487 167 503 137 491 135 c 0
 453 126 444 90 433 100 c 1
 427 97 450 119 444 118 c 0
 433 116 436 132 434 125 c 1
 423 124 421 107 405 112 c 1
 409 119 440 141 418 144 c 1
 425 160 435 175 455 175 c 1
 499 208 533 245 574 245 c 0
 618 245 602 226 618 201 c 1
 641 206 684 284 684 317 c 0
 684 357 665 379 625 379 c 0
 601 379 602 386 570 362 c 0
 563 356 565 335 558 327 c 0
 480 251 392 180 311 100 c 1
 293 100 l 1
 279 120 251 140 223 162 c 0
 202 178 159 203 137 221 c 0
 134 224 129 234 129 247 c 2
 136 469 l 1
 403 672 l 1
 424 652 587 596 587 565 c 0x4d8a
 587 553 577 495 578 468 c 0x2d8c
 578 453 566 428 565 415 c 2
 565 395 l 1
 592 400 641 411 654 411 c 0
 675 411 706 335 706 328 c 0x2d89
480 538 m 1
 474 543 473 551 473 556 c 1
 458 551 425 523 413 510 c 1
 409 477 352 436 325 391 c 1
 378 434 426 489 480 538 c 1
431 591 m 1
 426 597 419 605 419 610 c 1
 359 560 304 512 250 468 c 0
 244 465 245 455 245 449 c 1
 304 498 372 548 431 591 c 1
555 560 m 1
 549 560 541 567 541 567 c 1
 461 527 373 410 320 363 c 1
 303 359 279 380 270 397 c 1
 340 457 469 578 482 578 c 0x2a89
 494 578 507 569 512 569 c 1
 501 582 491 602 482 605 c 1
 393 556 340 518 240 417 c 1
 235 422 248 428 235 428 c 0
 220 428 203 442 195 457 c 1
 264 514 361 584 437 634 c 1
 415 649 l 1
 388 628 359 589 348 589 c 0
 334 589 353 600 340 600 c 0
 338 600 173 488 156 465 c 1
 299 309 l 1
 381 390 491 478 555 560 c 1
512 422 m 0
 512 436 500 438 500 443 c 1
 452 438 361 357 298 295 c 1
 297 281 297 249 297 239 c 0
 297 226 304 153 304 116 c 1
 336 143 364 166 385 188 c 0
 397 200 402 223 411 235 c 0
 428 260 481 292 486 322 c 0
 491 350 512 410 512 422 c 0
485 146 m 1
 459 160 441 162 431 156 c 1
 437 151 444 148 450 153 c 1
 455 143 444 132 444 126 c 1
 449 137 466 137 471 132 c 1
 485 146 l 1
291 127 m 1
 291 275 l 2
 291 325 162 437 147 454 c 1
 147 243 l 2
 146 233 246 158 291 127 c 1
238 272 m 1
 237 246 l 1x2d49
 226 240 215 234 208 230 c 1
 202 234 181 248 168 245 c 1
 170 251 168 265 163 286 c 1
 173 291 190 294 207 294 c 1
 209 302 208 340 210 349 c 1
 217 343 216 347 219 344 c 0
 219 329 214 303 214 289 c 0x2d91
 214 284 228 284 238 272 c 1
215 278 m 0
 214 280 197 283 197 285 c 1
 197 280 184 279 184 279 c 2
 189 279 202 273 207 273 c 0
 210 275 217 275 215 278 c 0
229 267 m 1
 228 270 l 1
 219 269 214 267 206 263 c 1
 200 267 186 273 175 275 c 1
 173 271 l 1
 187 269 192 264 205 258 c 1
 206 240 l 1x15a1
 209 240 l 1
 209 260 l 1
 215 264 224 266 229 267 c 1
395 -14 m 0
 177 -14 0 164 0 384 c 0
 0 604 177 783 395 783 c 0
 612 783 789 604 789 384 c 0
 789 164 612 -14 395 -14 c 0
395 16 m 0
 595 16 759 181 759 384 c 0
 759 588 595 753 395 753 c 0
 194 753 30 588 30 384 c 0
 30 181 194 16 395 16 c 0
EndSplineSet
EndChar

StartChar: comma
Encoding: 44 44 13
Width: 789
Flags: W
HStem: 1 99<293 311 293 499.5> 1 228<290 581> 245 134<553.5 645> 391 198 578 190<475.5 488>
VStem: 147 16 147 137<277 277 277 454> 147 144<127 454> 565 209<395 415 415 415> 578 196<460.5 468> 587 187<278 580.5> 706 68<309 331.5>
LayerCount: 2
Fore
SplineSet
774 384 m 0xaa10
 774 172 604 1 395 1 c 0
 185 1 15 172 15 384 c 0
 15 596 185 768 395 768 c 0
 604 768 774 596 774 384 c 0xaa10
706 328 m 0
 706 335 675 411 654 411 c 0
 641 411 592 400 565 395 c 1x7210
 565 415 l 2
 566 428 578 453 578 468 c 0xaa20
 577 495 587 553 587 565 c 0x6a40
 587 596 424 652 403 672 c 1
 136 469 l 1
 126 250 l 2
 126 237 137 224 140 221 c 0
 162 203 202 184 223 168 c 0
 251 146 279 120 293 100 c 1
 311 100 l 1
 392 180 480 251 558 327 c 0
 565 335 563 356 570 362 c 0
 602 386 601 379 625 379 c 0
 665 379 684 357 684 317 c 0
 684 284 641 206 618 201 c 1
 602 226 618 245 574 245 c 0
 533 245 499 208 455 175 c 1
 435 175 425 160 418 144 c 1
 440 141 409 119 405 112 c 1
 421 107 423 124 434 125 c 1
 436 132 433 116 444 118 c 0
 450 119 427 97 433 100 c 1
 444 90 453 126 491 135 c 0
 503 137 487 167 482 177 c 1
 503 198 542 229 566 229 c 0x6a80
 596 229 587 212 610 186 c 1
 655 187 706 290 706 328 c 0
480 538 m 1
 426 489 378 434 325 391 c 1
 352 436 409 477 413 510 c 1
 425 523 458 551 473 556 c 1
 473 551 474 543 480 538 c 1
431 591 m 1
 372 548 304 498 245 449 c 1
 245 455 244 465 250 468 c 0
 304 512 359 560 419 610 c 1
 419 605 426 597 431 591 c 1
555 560 m 1
 491 478 381 390 299 309 c 1
 156 465 l 1
 173 488 338 600 340 600 c 0
 353 600 334 589 348 589 c 0
 359 589 388 628 415 649 c 1
 437 634 l 1
 361 584 264 514 195 457 c 1
 203 442 220 428 235 428 c 0
 248 428 235 422 240 417 c 1
 340 518 393 556 482 605 c 1
 491 602 501 582 512 569 c 1
 507 569 494 578 482 578 c 0x6910
 469 578 340 457 270 397 c 1
 279 380 303 359 320 363 c 1
 373 410 461 527 541 567 c 1
 541 567 549 560 555 560 c 1
512 422 m 0
 512 410 491 350 486 322 c 0
 481 292 428 260 411 235 c 0
 402 223 397 200 385 188 c 0
 364 166 336 143 304 116 c 1
 304 153 297 226 297 239 c 0
 297 249 297 281 298 295 c 1
 361 357 452 438 500 443 c 1
 500 438 512 436 512 422 c 0
485 146 m 1
 471 132 l 1
 466 137 449 137 444 126 c 1
 444 132 455 143 450 153 c 1
 444 148 437 151 431 156 c 1
 441 162 459 160 485 146 c 1
284 277 m 2x6a10
 291 127 l 1
 246 158 146 233 147 243 c 2
 147 454 l 1
 162 437 285 327 284 277 c 2x6a10
237 246 m 1
 238 272 l 1
 228 284 214 284 214 289 c 0
 214 303 219 329 219 344 c 0
 216 347 217 343 210 349 c 1
 208 340 209 302 207 294 c 1
 190 294 173 291 163 286 c 1x6910
 168 265 170 251 168 245 c 1
 181 248 202 234 208 230 c 1
 215 234 226 240 237 246 c 1
215 278 m 0
 217 275 210 275 207 273 c 0
 202 273 189 279 184 279 c 2
 184 279 197 280 197 285 c 1
 197 283 214 280 215 278 c 0
228 270 m 1
 229 267 l 1
 224 266 215 264 209 260 c 1x6c10
 209 240 l 1
 206 240 l 1
 205 258 l 1
 192 264 187 269 173 271 c 1
 175 275 l 1
 186 273 200 267 206 263 c 1
 214 267 219 269 228 270 c 1
EndSplineSet
EndChar

StartChar: hyphen
Encoding: 45 45 14
Width: 789
Flags: W
HStem: -14 30<294.5 495 294.5 503.5> -14 114<293 311 293 503.5> -14 243<286 581> -14 277 245 134<553.5 645> 391 198 578 205<475.5 488> 753 30<294.5 495>
VStem: 147 16 147 62<243 260 240 454 243 243> 206 85<240 240> 214 77<286.5 296> 237 54<246 246> 578 211<460.5 468> 587 202<274 580.5> 706 83<309 331.5>
LayerCount: 2
Fore
SplineSet
706 328 m 0x2d89
 706 290 655 187 610 186 c 1
 587 212 596 229 566 229 c 0x2d89
 542 229 503 198 482 177 c 1
 487 167 503 137 491 135 c 0
 453 126 444 90 433 100 c 1
 427 97 450 119 444 118 c 0
 433 116 436 132 434 125 c 1
 423 124 421 107 405 112 c 1
 409 119 440 141 418 144 c 1
 425 160 435 175 455 175 c 1
 499 208 533 245 574 245 c 0
 618 245 602 226 618 201 c 1
 641 206 684 284 684 317 c 0
 684 357 665 379 625 379 c 0
 601 379 602 386 570 362 c 0
 563 356 565 335 558 327 c 0
 480 251 392 180 311 100 c 1
 293 100 l 1
 279 120 251 140 223 162 c 0
 202 178 159 203 137 221 c 0
 134 224 129 234 129 247 c 2
 136 469 l 1
 403 672 l 1
 424 652 587 596 587 565 c 0x4d8a
 587 553 577 495 578 468 c 0x2d8c
 578 453 566 428 565 415 c 2
 565 395 l 1
 592 400 641 411 654 411 c 0
 675 411 706 335 706 328 c 0x2d89
480 538 m 1
 474 543 473 551 473 556 c 1
 458 551 425 523 413 510 c 1
 409 477 352 436 325 391 c 1
 378 434 426 489 480 538 c 1
431 591 m 1
 426 597 419 605 419 610 c 1
 359 560 304 512 250 468 c 0
 244 465 245 455 245 449 c 1
 304 498 372 548 431 591 c 1
555 560 m 1
 549 560 541 567 541 567 c 1
 461 527 373 410 320 363 c 1
 303 359 279 380 270 397 c 1
 340 457 469 578 482 578 c 0x2a89
 494 578 507 569 512 569 c 1
 501 582 491 602 482 605 c 1
 393 556 340 518 240 417 c 1
 235 422 248 428 235 428 c 0
 220 428 203 442 195 457 c 1
 264 514 361 584 437 634 c 1
 415 649 l 1
 388 628 359 589 348 589 c 0
 334 589 353 600 340 600 c 0
 338 600 173 488 156 465 c 1
 299 309 l 1
 381 390 491 478 555 560 c 1
512 422 m 0
 512 436 500 438 500 443 c 1
 452 438 361 357 298 295 c 1
 297 281 297 249 297 239 c 0
 297 226 304 153 304 116 c 1
 336 143 364 166 385 188 c 0
 397 200 402 223 411 235 c 0
 428 260 481 292 486 322 c 0
 491 350 512 410 512 422 c 0
485 146 m 1
 459 160 441 162 431 156 c 1
 437 151 444 148 450 153 c 1
 455 143 444 132 444 126 c 1
 449 137 466 137 471 132 c 1
 485 146 l 1
291 127 m 1
 291 275 l 2
 291 325 162 437 147 454 c 1
 147 243 l 2
 146 233 246 158 291 127 c 1
238 272 m 1
 237 246 l 1x2d49
 226 240 215 234 208 230 c 1
 202 234 181 248 168 245 c 1
 170 251 168 265 163 286 c 1
 173 291 190 294 207 294 c 1
 209 302 208 340 210 349 c 1
 217 343 216 347 219 344 c 0
 219 329 214 303 214 289 c 0x2d91
 214 284 228 284 238 272 c 1
215 278 m 0
 214 280 197 283 197 285 c 1
 197 280 184 279 184 279 c 2
 189 279 202 273 207 273 c 0
 210 275 217 275 215 278 c 0
229 267 m 1
 228 270 l 1
 219 269 214 267 206 263 c 1
 200 267 186 273 175 275 c 1
 173 271 l 1
 187 269 192 264 205 258 c 1
 206 240 l 1x15a1
 209 240 l 1
 209 260 l 1
 215 264 224 266 229 267 c 1
395 -14 m 0
 177 -14 0 164 0 384 c 0
 0 604 177 783 395 783 c 0
 612 783 789 604 789 384 c 0
 789 164 612 -14 395 -14 c 0
395 16 m 0
 595 16 759 181 759 384 c 0
 759 588 595 753 395 753 c 0
 194 753 30 588 30 384 c 0
 30 181 194 16 395 16 c 0
EndSplineSet
EndChar

StartChar: period
Encoding: 46 46 15
Width: 789
Flags: W
HStem: 1 99<293 311 293 499.5> 1 228<290 581> 245 134<553.5 645> 391 198 578 190<475.5 488>
VStem: 147 16 147 137<277 277 277 454> 147 144<127 454> 565 209<395 415 415 415> 578 196<460.5 468> 587 187<278 580.5> 706 68<309 331.5>
LayerCount: 2
Fore
SplineSet
774 384 m 0xaa10
 774 172 604 1 395 1 c 0
 185 1 15 172 15 384 c 0
 15 596 185 768 395 768 c 0
 604 768 774 596 774 384 c 0xaa10
706 328 m 0
 706 335 675 411 654 411 c 0
 641 411 592 400 565 395 c 1x7210
 565 415 l 2
 566 428 578 453 578 468 c 0xaa20
 577 495 587 553 587 565 c 0x6a40
 587 596 424 652 403 672 c 1
 136 469 l 1
 126 250 l 2
 126 237 137 224 140 221 c 0
 162 203 202 184 223 168 c 0
 251 146 279 120 293 100 c 1
 311 100 l 1
 392 180 480 251 558 327 c 0
 565 335 563 356 570 362 c 0
 602 386 601 379 625 379 c 0
 665 379 684 357 684 317 c 0
 684 284 641 206 618 201 c 1
 602 226 618 245 574 245 c 0
 533 245 499 208 455 175 c 1
 435 175 425 160 418 144 c 1
 440 141 409 119 405 112 c 1
 421 107 423 124 434 125 c 1
 436 132 433 116 444 118 c 0
 450 119 427 97 433 100 c 1
 444 90 453 126 491 135 c 0
 503 137 487 167 482 177 c 1
 503 198 542 229 566 229 c 0x6a80
 596 229 587 212 610 186 c 1
 655 187 706 290 706 328 c 0
480 538 m 1
 426 489 378 434 325 391 c 1
 352 436 409 477 413 510 c 1
 425 523 458 551 473 556 c 1
 473 551 474 543 480 538 c 1
431 591 m 1
 372 548 304 498 245 449 c 1
 245 455 244 465 250 468 c 0
 304 512 359 560 419 610 c 1
 419 605 426 597 431 591 c 1
555 560 m 1
 491 478 381 390 299 309 c 1
 156 465 l 1
 173 488 338 600 340 600 c 0
 353 600 334 589 348 589 c 0
 359 589 388 628 415 649 c 1
 437 634 l 1
 361 584 264 514 195 457 c 1
 203 442 220 428 235 428 c 0
 248 428 235 422 240 417 c 1
 340 518 393 556 482 605 c 1
 491 602 501 582 512 569 c 1
 507 569 494 578 482 578 c 0x6910
 469 578 340 457 270 397 c 1
 279 380 303 359 320 363 c 1
 373 410 461 527 541 567 c 1
 541 567 549 560 555 560 c 1
512 422 m 0
 512 410 491 350 486 322 c 0
 481 292 428 260 411 235 c 0
 402 223 397 200 385 188 c 0
 364 166 336 143 304 116 c 1
 304 153 297 226 297 239 c 0
 297 249 297 281 298 295 c 1
 361 357 452 438 500 443 c 1
 500 438 512 436 512 422 c 0
485 146 m 1
 471 132 l 1
 466 137 449 137 444 126 c 1
 444 132 455 143 450 153 c 1
 444 148 437 151 431 156 c 1
 441 162 459 160 485 146 c 1
284 277 m 2x6a10
 291 127 l 1
 246 158 146 233 147 243 c 2
 147 454 l 1
 162 437 285 327 284 277 c 2x6a10
237 246 m 1
 238 272 l 1
 228 284 214 284 214 289 c 0
 214 303 219 329 219 344 c 0
 216 347 217 343 210 349 c 1
 208 340 209 302 207 294 c 1
 190 294 173 291 163 286 c 1x6910
 168 265 170 251 168 245 c 1
 181 248 202 234 208 230 c 1
 215 234 226 240 237 246 c 1
215 278 m 0
 217 275 210 275 207 273 c 0
 202 273 189 279 184 279 c 2
 184 279 197 280 197 285 c 1
 197 283 214 280 215 278 c 0
228 270 m 1
 229 267 l 1
 224 266 215 264 209 260 c 1x6c10
 209 240 l 1
 206 240 l 1
 205 258 l 1
 192 264 187 269 173 271 c 1
 175 275 l 1
 186 273 200 267 206 263 c 1
 214 267 219 269 228 270 c 1
EndSplineSet
EndChar

StartChar: slash
Encoding: 47 47 16
Width: 789
Flags: W
HStem: -14 30<294.5 495 294.5 503.5> -14 114<293 311 293 503.5> -14 243<286 581> -14 277 245 134<553.5 645> 391 198 578 205<475.5 488> 753 30<294.5 495>
VStem: 147 16 147 62<243 260 240 454 243 243> 206 85<240 240> 214 77<286.5 296> 237 54<246 246> 578 211<460.5 468> 587 202<274 580.5> 706 83<309 331.5>
LayerCount: 2
Fore
SplineSet
706 328 m 0x2d89
 706 290 655 187 610 186 c 1
 587 212 596 229 566 229 c 0x2d89
 542 229 503 198 482 177 c 1
 487 167 503 137 491 135 c 0
 453 126 444 90 433 100 c 1
 427 97 450 119 444 118 c 0
 433 116 436 132 434 125 c 1
 423 124 421 107 405 112 c 1
 409 119 440 141 418 144 c 1
 425 160 435 175 455 175 c 1
 499 208 533 245 574 245 c 0
 618 245 602 226 618 201 c 1
 641 206 684 284 684 317 c 0
 684 357 665 379 625 379 c 0
 601 379 602 386 570 362 c 0
 563 356 565 335 558 327 c 0
 480 251 392 180 311 100 c 1
 293 100 l 1
 279 120 251 140 223 162 c 0
 202 178 159 203 137 221 c 0
 134 224 129 234 129 247 c 2
 136 469 l 1
 403 672 l 1
 424 652 587 596 587 565 c 0x4d8a
 587 553 577 495 578 468 c 0x2d8c
 578 453 566 428 565 415 c 2
 565 395 l 1
 592 400 641 411 654 411 c 0
 675 411 706 335 706 328 c 0x2d89
480 538 m 1
 474 543 473 551 473 556 c 1
 458 551 425 523 413 510 c 1
 409 477 352 436 325 391 c 1
 378 434 426 489 480 538 c 1
431 591 m 1
 426 597 419 605 419 610 c 1
 359 560 304 512 250 468 c 0
 244 465 245 455 245 449 c 1
 304 498 372 548 431 591 c 1
555 560 m 1
 549 560 541 567 541 567 c 1
 461 527 373 410 320 363 c 1
 303 359 279 380 270 397 c 1
 340 457 469 578 482 578 c 0x2a89
 494 578 507 569 512 569 c 1
 501 582 491 602 482 605 c 1
 393 556 340 518 240 417 c 1
 235 422 248 428 235 428 c 0
 220 428 203 442 195 457 c 1
 264 514 361 584 437 634 c 1
 415 649 l 1
 388 628 359 589 348 589 c 0
 334 589 353 600 340 600 c 0
 338 600 173 488 156 465 c 1
 299 309 l 1
 381 390 491 478 555 560 c 1
512 422 m 0
 512 436 500 438 500 443 c 1
 452 438 361 357 298 295 c 1
 297 281 297 249 297 239 c 0
 297 226 304 153 304 116 c 1
 336 143 364 166 385 188 c 0
 397 200 402 223 411 235 c 0
 428 260 481 292 486 322 c 0
 491 350 512 410 512 422 c 0
485 146 m 1
 459 160 441 162 431 156 c 1
 437 151 444 148 450 153 c 1
 455 143 444 132 444 126 c 1
 449 137 466 137 471 132 c 1
 485 146 l 1
291 127 m 1
 291 275 l 2
 291 325 162 437 147 454 c 1
 147 243 l 2
 146 233 246 158 291 127 c 1
238 272 m 1
 237 246 l 1x2d49
 226 240 215 234 208 230 c 1
 202 234 181 248 168 245 c 1
 170 251 168 265 163 286 c 1
 173 291 190 294 207 294 c 1
 209 302 208 340 210 349 c 1
 217 343 216 347 219 344 c 0
 219 329 214 303 214 289 c 0x2d91
 214 284 228 284 238 272 c 1
215 278 m 0
 214 280 197 283 197 285 c 1
 197 280 184 279 184 279 c 2
 189 279 202 273 207 273 c 0
 210 275 217 275 215 278 c 0
229 267 m 1
 228 270 l 1
 219 269 214 267 206 263 c 1
 200 267 186 273 175 275 c 1
 173 271 l 1
 187 269 192 264 205 258 c 1
 206 240 l 1x15a1
 209 240 l 1
 209 260 l 1
 215 264 224 266 229 267 c 1
395 -14 m 0
 177 -14 0 164 0 384 c 0
 0 604 177 783 395 783 c 0
 612 783 789 604 789 384 c 0
 789 164 612 -14 395 -14 c 0
395 16 m 0
 595 16 759 181 759 384 c 0
 759 588 595 753 395 753 c 0
 194 753 30 588 30 384 c 0
 30 181 194 16 395 16 c 0
EndSplineSet
EndChar

StartChar: zero
Encoding: 48 48 17
Width: 789
Flags: W
HStem: -14 30<294.5 495 294.5 503.5> -14 114<293 311 293 503.5> -14 243<286 581> -14 277 245 134<553.5 645> 391 198 578 205<475.5 488> 753 30<294.5 495>
VStem: 147 16 147 62<243 260 240 454 243 243> 206 85<240 240> 214 77<286.5 296> 237 54<246 246> 578 211<460.5 468> 587 202<274 580.5> 706 83<309 331.5>
LayerCount: 2
Fore
SplineSet
706 328 m 0x2d89
 706 290 655 187 610 186 c 1
 587 212 596 229 566 229 c 0x2d89
 542 229 503 198 482 177 c 1
 487 167 503 137 491 135 c 0
 453 126 444 90 433 100 c 1
 427 97 450 119 444 118 c 0
 433 116 436 132 434 125 c 1
 423 124 421 107 405 112 c 1
 409 119 440 141 418 144 c 1
 425 160 435 175 455 175 c 1
 499 208 533 245 574 245 c 0
 618 245 602 226 618 201 c 1
 641 206 684 284 684 317 c 0
 684 357 665 379 625 379 c 0
 601 379 602 386 570 362 c 0
 563 356 565 335 558 327 c 0
 480 251 392 180 311 100 c 1
 293 100 l 1
 279 120 251 140 223 162 c 0
 202 178 159 203 137 221 c 0
 134 224 129 234 129 247 c 2
 136 469 l 1
 403 672 l 1
 424 652 587 596 587 565 c 0x4d8a
 587 553 577 495 578 468 c 0x2d8c
 578 453 566 428 565 415 c 2
 565 395 l 1
 592 400 641 411 654 411 c 0
 675 411 706 335 706 328 c 0x2d89
480 538 m 1
 474 543 473 551 473 556 c 1
 458 551 425 523 413 510 c 1
 409 477 352 436 325 391 c 1
 378 434 426 489 480 538 c 1
431 591 m 1
 426 597 419 605 419 610 c 1
 359 560 304 512 250 468 c 0
 244 465 245 455 245 449 c 1
 304 498 372 548 431 591 c 1
555 560 m 1
 549 560 541 567 541 567 c 1
 461 527 373 410 320 363 c 1
 303 359 279 380 270 397 c 1
 340 457 469 578 482 578 c 0x2a89
 494 578 507 569 512 569 c 1
 501 582 491 602 482 605 c 1
 393 556 340 518 240 417 c 1
 235 422 248 428 235 428 c 0
 220 428 203 442 195 457 c 1
 264 514 361 584 437 634 c 1
 415 649 l 1
 388 628 359 589 348 589 c 0
 334 589 353 600 340 600 c 0
 338 600 173 488 156 465 c 1
 299 309 l 1
 381 390 491 478 555 560 c 1
512 422 m 0
 512 436 500 438 500 443 c 1
 452 438 361 357 298 295 c 1
 297 281 297 249 297 239 c 0
 297 226 304 153 304 116 c 1
 336 143 364 166 385 188 c 0
 397 200 402 223 411 235 c 0
 428 260 481 292 486 322 c 0
 491 350 512 410 512 422 c 0
485 146 m 1
 459 160 441 162 431 156 c 1
 437 151 444 148 450 153 c 1
 455 143 444 132 444 126 c 1
 449 137 466 137 471 132 c 1
 485 146 l 1
291 127 m 1
 291 275 l 2
 291 325 162 437 147 454 c 1
 147 243 l 2
 146 233 246 158 291 127 c 1
238 272 m 1
 237 246 l 1x2d49
 226 240 215 234 208 230 c 1
 202 234 181 248 168 245 c 1
 170 251 168 265 163 286 c 1
 173 291 190 294 207 294 c 1
 209 302 208 340 210 349 c 1
 217 343 216 347 219 344 c 0
 219 329 214 303 214 289 c 0x2d91
 214 284 228 284 238 272 c 1
215 278 m 0
 214 280 197 283 197 285 c 1
 197 280 184 279 184 279 c 2
 189 279 202 273 207 273 c 0
 210 275 217 275 215 278 c 0
229 267 m 1
 228 270 l 1
 219 269 214 267 206 263 c 1
 200 267 186 273 175 275 c 1
 173 271 l 1
 187 269 192 264 205 258 c 1
 206 240 l 1x15a1
 209 240 l 1
 209 260 l 1
 215 264 224 266 229 267 c 1
395 -14 m 0
 177 -14 0 164 0 384 c 0
 0 604 177 783 395 783 c 0
 612 783 789 604 789 384 c 0
 789 164 612 -14 395 -14 c 0
395 16 m 0
 595 16 759 181 759 384 c 0
 759 588 595 753 395 753 c 0
 194 753 30 588 30 384 c 0
 30 181 194 16 395 16 c 0
EndSplineSet
EndChar

StartChar: one
Encoding: 49 49 18
Width: 789
Flags: W
HStem: 1 99<293 311 293 499.5> 1 228<290 581> 245 134<553.5 645> 391 198 578 190<475.5 488>
VStem: 147 16 147 137<277 277 277 454> 147 144<127 454> 565 209<395 415 415 415> 578 196<460.5 468> 587 187<278 580.5> 706 68<309 331.5>
LayerCount: 2
Fore
SplineSet
774 384 m 0xaa10
 774 172 604 1 395 1 c 0
 185 1 15 172 15 384 c 0
 15 596 185 768 395 768 c 0
 604 768 774 596 774 384 c 0xaa10
706 328 m 0
 706 335 675 411 654 411 c 0
 641 411 592 400 565 395 c 1x7210
 565 415 l 2
 566 428 578 453 578 468 c 0xaa20
 577 495 587 553 587 565 c 0x6a40
 587 596 424 652 403 672 c 1
 136 469 l 1
 126 250 l 2
 126 237 137 224 140 221 c 0
 162 203 202 184 223 168 c 0
 251 146 279 120 293 100 c 1
 311 100 l 1
 392 180 480 251 558 327 c 0
 565 335 563 356 570 362 c 0
 602 386 601 379 625 379 c 0
 665 379 684 357 684 317 c 0
 684 284 641 206 618 201 c 1
 602 226 618 245 574 245 c 0
 533 245 499 208 455 175 c 1
 435 175 425 160 418 144 c 1
 440 141 409 119 405 112 c 1
 421 107 423 124 434 125 c 1
 436 132 433 116 444 118 c 0
 450 119 427 97 433 100 c 1
 444 90 453 126 491 135 c 0
 503 137 487 167 482 177 c 1
 503 198 542 229 566 229 c 0x6a80
 596 229 587 212 610 186 c 1
 655 187 706 290 706 328 c 0
480 538 m 1
 426 489 378 434 325 391 c 1
 352 436 409 477 413 510 c 1
 425 523 458 551 473 556 c 1
 473 551 474 543 480 538 c 1
431 591 m 1
 372 548 304 498 245 449 c 1
 245 455 244 465 250 468 c 0
 304 512 359 560 419 610 c 1
 419 605 426 597 431 591 c 1
555 560 m 1
 491 478 381 390 299 309 c 1
 156 465 l 1
 173 488 338 600 340 600 c 0
 353 600 334 589 348 589 c 0
 359 589 388 628 415 649 c 1
 437 634 l 1
 361 584 264 514 195 457 c 1
 203 442 220 428 235 428 c 0
 248 428 235 422 240 417 c 1
 340 518 393 556 482 605 c 1
 491 602 501 582 512 569 c 1
 507 569 494 578 482 578 c 0x6910
 469 578 340 457 270 397 c 1
 279 380 303 359 320 363 c 1
 373 410 461 527 541 567 c 1
 541 567 549 560 555 560 c 1
512 422 m 0
 512 410 491 350 486 322 c 0
 481 292 428 260 411 235 c 0
 402 223 397 200 385 188 c 0
 364 166 336 143 304 116 c 1
 304 153 297 226 297 239 c 0
 297 249 297 281 298 295 c 1
 361 357 452 438 500 443 c 1
 500 438 512 436 512 422 c 0
485 146 m 1
 471 132 l 1
 466 137 449 137 444 126 c 1
 444 132 455 143 450 153 c 1
 444 148 437 151 431 156 c 1
 441 162 459 160 485 146 c 1
284 277 m 2x6a10
 291 127 l 1
 246 158 146 233 147 243 c 2
 147 454 l 1
 162 437 285 327 284 277 c 2x6a10
237 246 m 1
 238 272 l 1
 228 284 214 284 214 289 c 0
 214 303 219 329 219 344 c 0
 216 347 217 343 210 349 c 1
 208 340 209 302 207 294 c 1
 190 294 173 291 163 286 c 1x6910
 168 265 170 251 168 245 c 1
 181 248 202 234 208 230 c 1
 215 234 226 240 237 246 c 1
215 278 m 0
 217 275 210 275 207 273 c 0
 202 273 189 279 184 279 c 2
 184 279 197 280 197 285 c 1
 197 283 214 280 215 278 c 0
228 270 m 1
 229 267 l 1
 224 266 215 264 209 260 c 1x6c10
 209 240 l 1
 206 240 l 1
 205 258 l 1
 192 264 187 269 173 271 c 1
 175 275 l 1
 186 273 200 267 206 263 c 1
 214 267 219 269 228 270 c 1
EndSplineSet
EndChar

StartChar: two
Encoding: 50 50 19
Width: 789
Flags: W
HStem: -14 30<294.5 495 294.5 503.5> -14 114<293 311 293 503.5> -14 243<286 581> -14 277 245 134<553.5 645> 391 198 578 205<475.5 488> 753 30<294.5 495>
VStem: 147 16 147 62<243 260 240 454 243 243> 206 85<240 240> 214 77<286.5 296> 237 54<246 246> 578 211<460.5 468> 587 202<274 580.5> 706 83<309 331.5>
LayerCount: 2
Fore
SplineSet
706 328 m 0x2d89
 706 290 655 187 610 186 c 1
 587 212 596 229 566 229 c 0x2d89
 542 229 503 198 482 177 c 1
 487 167 503 137 491 135 c 0
 453 126 444 90 433 100 c 1
 427 97 450 119 444 118 c 0
 433 116 436 132 434 125 c 1
 423 124 421 107 405 112 c 1
 409 119 440 141 418 144 c 1
 425 160 435 175 455 175 c 1
 499 208 533 245 574 245 c 0
 618 245 602 226 618 201 c 1
 641 206 684 284 684 317 c 0
 684 357 665 379 625 379 c 0
 601 379 602 386 570 362 c 0
 563 356 565 335 558 327 c 0
 480 251 392 180 311 100 c 1
 293 100 l 1
 279 120 251 140 223 162 c 0
 202 178 159 203 137 221 c 0
 134 224 129 234 129 247 c 2
 136 469 l 1
 403 672 l 1
 424 652 587 596 587 565 c 0x4d8a
 587 553 577 495 578 468 c 0x2d8c
 578 453 566 428 565 415 c 2
 565 395 l 1
 592 400 641 411 654 411 c 0
 675 411 706 335 706 328 c 0x2d89
480 538 m 1
 474 543 473 551 473 556 c 1
 458 551 425 523 413 510 c 1
 409 477 352 436 325 391 c 1
 378 434 426 489 480 538 c 1
431 591 m 1
 426 597 419 605 419 610 c 1
 359 560 304 512 250 468 c 0
 244 465 245 455 245 449 c 1
 304 498 372 548 431 591 c 1
555 560 m 1
 549 560 541 567 541 567 c 1
 461 527 373 410 320 363 c 1
 303 359 279 380 270 397 c 1
 340 457 469 578 482 578 c 0x2a89
 494 578 507 569 512 569 c 1
 501 582 491 602 482 605 c 1
 393 556 340 518 240 417 c 1
 235 422 248 428 235 428 c 0
 220 428 203 442 195 457 c 1
 264 514 361 584 437 634 c 1
 415 649 l 1
 388 628 359 589 348 589 c 0
 334 589 353 600 340 600 c 0
 338 600 173 488 156 465 c 1
 299 309 l 1
 381 390 491 478 555 560 c 1
512 422 m 0
 512 436 500 438 500 443 c 1
 452 438 361 357 298 295 c 1
 297 281 297 249 297 239 c 0
 297 226 304 153 304 116 c 1
 336 143 364 166 385 188 c 0
 397 200 402 223 411 235 c 0
 428 260 481 292 486 322 c 0
 491 350 512 410 512 422 c 0
485 146 m 1
 459 160 441 162 431 156 c 1
 437 151 444 148 450 153 c 1
 455 143 444 132 444 126 c 1
 449 137 466 137 471 132 c 1
 485 146 l 1
291 127 m 1
 291 275 l 2
 291 325 162 437 147 454 c 1
 147 243 l 2
 146 233 246 158 291 127 c 1
238 272 m 1
 237 246 l 1x2d49
 226 240 215 234 208 230 c 1
 202 234 181 248 168 245 c 1
 170 251 168 265 163 286 c 1
 173 291 190 294 207 294 c 1
 209 302 208 340 210 349 c 1
 217 343 216 347 219 344 c 0
 219 329 214 303 214 289 c 0x2d91
 214 284 228 284 238 272 c 1
215 278 m 0
 214 280 197 283 197 285 c 1
 197 280 184 279 184 279 c 2
 189 279 202 273 207 273 c 0
 210 275 217 275 215 278 c 0
229 267 m 1
 228 270 l 1
 219 269 214 267 206 263 c 1
 200 267 186 273 175 275 c 1
 173 271 l 1
 187 269 192 264 205 258 c 1
 206 240 l 1x15a1
 209 240 l 1
 209 260 l 1
 215 264 224 266 229 267 c 1
395 -14 m 0
 177 -14 0 164 0 384 c 0
 0 604 177 783 395 783 c 0
 612 783 789 604 789 384 c 0
 789 164 612 -14 395 -14 c 0
395 16 m 0
 595 16 759 181 759 384 c 0
 759 588 595 753 395 753 c 0
 194 753 30 588 30 384 c 0
 30 181 194 16 395 16 c 0
EndSplineSet
EndChar

StartChar: three
Encoding: 51 51 20
Width: 789
Flags: W
HStem: 1 99<293 311 293 499.5> 1 228<290 581> 245 134<553.5 645> 391 198 578 190<475.5 488>
VStem: 147 16 147 137<277 277 277 454> 147 144<127 454> 565 209<395 415 415 415> 578 196<460.5 468> 587 187<278 580.5> 706 68<309 331.5>
LayerCount: 2
Fore
SplineSet
774 384 m 0xaa10
 774 172 604 1 395 1 c 0
 185 1 15 172 15 384 c 0
 15 596 185 768 395 768 c 0
 604 768 774 596 774 384 c 0xaa10
706 328 m 0
 706 335 675 411 654 411 c 0
 641 411 592 400 565 395 c 1x7210
 565 415 l 2
 566 428 578 453 578 468 c 0xaa20
 577 495 587 553 587 565 c 0x6a40
 587 596 424 652 403 672 c 1
 136 469 l 1
 126 250 l 2
 126 237 137 224 140 221 c 0
 162 203 202 184 223 168 c 0
 251 146 279 120 293 100 c 1
 311 100 l 1
 392 180 480 251 558 327 c 0
 565 335 563 356 570 362 c 0
 602 386 601 379 625 379 c 0
 665 379 684 357 684 317 c 0
 684 284 641 206 618 201 c 1
 602 226 618 245 574 245 c 0
 533 245 499 208 455 175 c 1
 435 175 425 160 418 144 c 1
 440 141 409 119 405 112 c 1
 421 107 423 124 434 125 c 1
 436 132 433 116 444 118 c 0
 450 119 427 97 433 100 c 1
 444 90 453 126 491 135 c 0
 503 137 487 167 482 177 c 1
 503 198 542 229 566 229 c 0x6a80
 596 229 587 212 610 186 c 1
 655 187 706 290 706 328 c 0
480 538 m 1
 426 489 378 434 325 391 c 1
 352 436 409 477 413 510 c 1
 425 523 458 551 473 556 c 1
 473 551 474 543 480 538 c 1
431 591 m 1
 372 548 304 498 245 449 c 1
 245 455 244 465 250 468 c 0
 304 512 359 560 419 610 c 1
 419 605 426 597 431 591 c 1
555 560 m 1
 491 478 381 390 299 309 c 1
 156 465 l 1
 173 488 338 600 340 600 c 0
 353 600 334 589 348 589 c 0
 359 589 388 628 415 649 c 1
 437 634 l 1
 361 584 264 514 195 457 c 1
 203 442 220 428 235 428 c 0
 248 428 235 422 240 417 c 1
 340 518 393 556 482 605 c 1
 491 602 501 582 512 569 c 1
 507 569 494 578 482 578 c 0x6910
 469 578 340 457 270 397 c 1
 279 380 303 359 320 363 c 1
 373 410 461 527 541 567 c 1
 541 567 549 560 555 560 c 1
512 422 m 0
 512 410 491 350 486 322 c 0
 481 292 428 260 411 235 c 0
 402 223 397 200 385 188 c 0
 364 166 336 143 304 116 c 1
 304 153 297 226 297 239 c 0
 297 249 297 281 298 295 c 1
 361 357 452 438 500 443 c 1
 500 438 512 436 512 422 c 0
485 146 m 1
 471 132 l 1
 466 137 449 137 444 126 c 1
 444 132 455 143 450 153 c 1
 444 148 437 151 431 156 c 1
 441 162 459 160 485 146 c 1
284 277 m 2x6a10
 291 127 l 1
 246 158 146 233 147 243 c 2
 147 454 l 1
 162 437 285 327 284 277 c 2x6a10
237 246 m 1
 238 272 l 1
 228 284 214 284 214 289 c 0
 214 303 219 329 219 344 c 0
 216 347 217 343 210 349 c 1
 208 340 209 302 207 294 c 1
 190 294 173 291 163 286 c 1x6910
 168 265 170 251 168 245 c 1
 181 248 202 234 208 230 c 1
 215 234 226 240 237 246 c 1
215 278 m 0
 217 275 210 275 207 273 c 0
 202 273 189 279 184 279 c 2
 184 279 197 280 197 285 c 1
 197 283 214 280 215 278 c 0
228 270 m 1
 229 267 l 1
 224 266 215 264 209 260 c 1x6c10
 209 240 l 1
 206 240 l 1
 205 258 l 1
 192 264 187 269 173 271 c 1
 175 275 l 1
 186 273 200 267 206 263 c 1
 214 267 219 269 228 270 c 1
EndSplineSet
EndChar

StartChar: four
Encoding: 52 52 21
Width: 789
Flags: W
HStem: -14 30<294.5 495 294.5 503.5> -14 114<293 311 293 503.5> -14 243<286 581> -14 277 245 134<553.5 645> 391 198 578 205<475.5 488> 753 30<294.5 495>
VStem: 147 16 147 62<243 260 240 454 243 243> 206 85<240 240> 214 77<286.5 296> 237 54<246 246> 578 211<460.5 468> 587 202<274 580.5> 706 83<309 331.5>
LayerCount: 2
Fore
SplineSet
706 328 m 0x2d89
 706 290 655 187 610 186 c 1
 587 212 596 229 566 229 c 0x2d89
 542 229 503 198 482 177 c 1
 487 167 503 137 491 135 c 0
 453 126 444 90 433 100 c 1
 427 97 450 119 444 118 c 0
 433 116 436 132 434 125 c 1
 423 124 421 107 405 112 c 1
 409 119 440 141 418 144 c 1
 425 160 435 175 455 175 c 1
 499 208 533 245 574 245 c 0
 618 245 602 226 618 201 c 1
 641 206 684 284 684 317 c 0
 684 357 665 379 625 379 c 0
 601 379 602 386 570 362 c 0
 563 356 565 335 558 327 c 0
 480 251 392 180 311 100 c 1
 293 100 l 1
 279 120 251 140 223 162 c 0
 202 178 159 203 137 221 c 0
 134 224 129 234 129 247 c 2
 136 469 l 1
 403 672 l 1
 424 652 587 596 587 565 c 0x4d8a
 587 553 577 495 578 468 c 0x2d8c
 578 453 566 428 565 415 c 2
 565 395 l 1
 592 400 641 411 654 411 c 0
 675 411 706 335 706 328 c 0x2d89
480 538 m 1
 474 543 473 551 473 556 c 1
 458 551 425 523 413 510 c 1
 409 477 352 436 325 391 c 1
 378 434 426 489 480 538 c 1
431 591 m 1
 426 597 419 605 419 610 c 1
 359 560 304 512 250 468 c 0
 244 465 245 455 245 449 c 1
 304 498 372 548 431 591 c 1
555 560 m 1
 549 560 541 567 541 567 c 1
 461 527 373 410 320 363 c 1
 303 359 279 380 270 397 c 1
 340 457 469 578 482 578 c 0x2a89
 494 578 507 569 512 569 c 1
 501 582 491 602 482 605 c 1
 393 556 340 518 240 417 c 1
 235 422 248 428 235 428 c 0
 220 428 203 442 195 457 c 1
 264 514 361 584 437 634 c 1
 415 649 l 1
 388 628 359 589 348 589 c 0
 334 589 353 600 340 600 c 0
 338 600 173 488 156 465 c 1
 299 309 l 1
 381 390 491 478 555 560 c 1
512 422 m 0
 512 436 500 438 500 443 c 1
 452 438 361 357 298 295 c 1
 297 281 297 249 297 239 c 0
 297 226 304 153 304 116 c 1
 336 143 364 166 385 188 c 0
 397 200 402 223 411 235 c 0
 428 260 481 292 486 322 c 0
 491 350 512 410 512 422 c 0
485 146 m 1
 459 160 441 162 431 156 c 1
 437 151 444 148 450 153 c 1
 455 143 444 132 444 126 c 1
 449 137 466 137 471 132 c 1
 485 146 l 1
291 127 m 1
 291 275 l 2
 291 325 162 437 147 454 c 1
 147 243 l 2
 146 233 246 158 291 127 c 1
238 272 m 1
 237 246 l 1x2d49
 226 240 215 234 208 230 c 1
 202 234 181 248 168 245 c 1
 170 251 168 265 163 286 c 1
 173 291 190 294 207 294 c 1
 209 302 208 340 210 349 c 1
 217 343 216 347 219 344 c 0
 219 329 214 303 214 289 c 0x2d91
 214 284 228 284 238 272 c 1
215 278 m 0
 214 280 197 283 197 285 c 1
 197 280 184 279 184 279 c 2
 189 279 202 273 207 273 c 0
 210 275 217 275 215 278 c 0
229 267 m 1
 228 270 l 1
 219 269 214 267 206 263 c 1
 200 267 186 273 175 275 c 1
 173 271 l 1
 187 269 192 264 205 258 c 1
 206 240 l 1x15a1
 209 240 l 1
 209 260 l 1
 215 264 224 266 229 267 c 1
395 -14 m 0
 177 -14 0 164 0 384 c 0
 0 604 177 783 395 783 c 0
 612 783 789 604 789 384 c 0
 789 164 612 -14 395 -14 c 0
395 16 m 0
 595 16 759 181 759 384 c 0
 759 588 595 753 395 753 c 0
 194 753 30 588 30 384 c 0
 30 181 194 16 395 16 c 0
EndSplineSet
EndChar

StartChar: five
Encoding: 53 53 22
Width: 789
Flags: W
HStem: 1 99<293 311 293 499.5> 1 228<290 581> 245 134<553.5 645> 391 198 578 190<475.5 488>
VStem: 147 16 147 137<277 277 277 454> 147 144<127 454> 565 209<395 415 415 415> 578 196<460.5 468> 587 187<278 580.5> 706 68<309 331.5>
LayerCount: 2
Fore
SplineSet
774 384 m 0xaa10
 774 172 604 1 395 1 c 0
 185 1 15 172 15 384 c 0
 15 596 185 768 395 768 c 0
 604 768 774 596 774 384 c 0xaa10
706 328 m 0
 706 335 675 411 654 411 c 0
 641 411 592 400 565 395 c 1x7210
 565 415 l 2
 566 428 578 453 578 468 c 0xaa20
 577 495 587 553 587 565 c 0x6a40
 587 596 424 652 403 672 c 1
 136 469 l 1
 126 250 l 2
 126 237 137 224 140 221 c 0
 162 203 202 184 223 168 c 0
 251 146 279 120 293 100 c 1
 311 100 l 1
 392 180 480 251 558 327 c 0
 565 335 563 356 570 362 c 0
 602 386 601 379 625 379 c 0
 665 379 684 357 684 317 c 0
 684 284 641 206 618 201 c 1
 602 226 618 245 574 245 c 0
 533 245 499 208 455 175 c 1
 435 175 425 160 418 144 c 1
 440 141 409 119 405 112 c 1
 421 107 423 124 434 125 c 1
 436 132 433 116 444 118 c 0
 450 119 427 97 433 100 c 1
 444 90 453 126 491 135 c 0
 503 137 487 167 482 177 c 1
 503 198 542 229 566 229 c 0x6a80
 596 229 587 212 610 186 c 1
 655 187 706 290 706 328 c 0
480 538 m 1
 426 489 378 434 325 391 c 1
 352 436 409 477 413 510 c 1
 425 523 458 551 473 556 c 1
 473 551 474 543 480 538 c 1
431 591 m 1
 372 548 304 498 245 449 c 1
 245 455 244 465 250 468 c 0
 304 512 359 560 419 610 c 1
 419 605 426 597 431 591 c 1
555 560 m 1
 491 478 381 390 299 309 c 1
 156 465 l 1
 173 488 338 600 340 600 c 0
 353 600 334 589 348 589 c 0
 359 589 388 628 415 649 c 1
 437 634 l 1
 361 584 264 514 195 457 c 1
 203 442 220 428 235 428 c 0
 248 428 235 422 240 417 c 1
 340 518 393 556 482 605 c 1
 491 602 501 582 512 569 c 1
 507 569 494 578 482 578 c 0x6910
 469 578 340 457 270 397 c 1
 279 380 303 359 320 363 c 1
 373 410 461 527 541 567 c 1
 541 567 549 560 555 560 c 1
512 422 m 0
 512 410 491 350 486 322 c 0
 481 292 428 260 411 235 c 0
 402 223 397 200 385 188 c 0
 364 166 336 143 304 116 c 1
 304 153 297 226 297 239 c 0
 297 249 297 281 298 295 c 1
 361 357 452 438 500 443 c 1
 500 438 512 436 512 422 c 0
485 146 m 1
 471 132 l 1
 466 137 449 137 444 126 c 1
 444 132 455 143 450 153 c 1
 444 148 437 151 431 156 c 1
 441 162 459 160 485 146 c 1
284 277 m 2x6a10
 291 127 l 1
 246 158 146 233 147 243 c 2
 147 454 l 1
 162 437 285 327 284 277 c 2x6a10
237 246 m 1
 238 272 l 1
 228 284 214 284 214 289 c 0
 214 303 219 329 219 344 c 0
 216 347 217 343 210 349 c 1
 208 340 209 302 207 294 c 1
 190 294 173 291 163 286 c 1x6910
 168 265 170 251 168 245 c 1
 181 248 202 234 208 230 c 1
 215 234 226 240 237 246 c 1
215 278 m 0
 217 275 210 275 207 273 c 0
 202 273 189 279 184 279 c 2
 184 279 197 280 197 285 c 1
 197 283 214 280 215 278 c 0
228 270 m 1
 229 267 l 1
 224 266 215 264 209 260 c 1x6c10
 209 240 l 1
 206 240 l 1
 205 258 l 1
 192 264 187 269 173 271 c 1
 175 275 l 1
 186 273 200 267 206 263 c 1
 214 267 219 269 228 270 c 1
EndSplineSet
EndChar

StartChar: six
Encoding: 54 54 23
Width: 789
Flags: W
HStem: -14 30<294.5 495 294.5 503.5> -14 114<293 311 293 503.5> -14 243<286 581> -14 277 245 134<553.5 645> 391 198 578 205<475.5 488> 753 30<294.5 495>
VStem: 147 16 147 62<243 260 240 454 243 243> 206 85<240 240> 214 77<286.5 296> 237 54<246 246> 578 211<460.5 468> 587 202<274 580.5> 706 83<309 331.5>
LayerCount: 2
Fore
SplineSet
706 328 m 0x2d89
 706 290 655 187 610 186 c 1
 587 212 596 229 566 229 c 0x2d89
 542 229 503 198 482 177 c 1
 487 167 503 137 491 135 c 0
 453 126 444 90 433 100 c 1
 427 97 450 119 444 118 c 0
 433 116 436 132 434 125 c 1
 423 124 421 107 405 112 c 1
 409 119 440 141 418 144 c 1
 425 160 435 175 455 175 c 1
 499 208 533 245 574 245 c 0
 618 245 602 226 618 201 c 1
 641 206 684 284 684 317 c 0
 684 357 665 379 625 379 c 0
 601 379 602 386 570 362 c 0
 563 356 565 335 558 327 c 0
 480 251 392 180 311 100 c 1
 293 100 l 1
 279 120 251 140 223 162 c 0
 202 178 159 203 137 221 c 0
 134 224 129 234 129 247 c 2
 136 469 l 1
 403 672 l 1
 424 652 587 596 587 565 c 0x4d8a
 587 553 577 495 578 468 c 0x2d8c
 578 453 566 428 565 415 c 2
 565 395 l 1
 592 400 641 411 654 411 c 0
 675 411 706 335 706 328 c 0x2d89
480 538 m 1
 474 543 473 551 473 556 c 1
 458 551 425 523 413 510 c 1
 409 477 352 436 325 391 c 1
 378 434 426 489 480 538 c 1
431 591 m 1
 426 597 419 605 419 610 c 1
 359 560 304 512 250 468 c 0
 244 465 245 455 245 449 c 1
 304 498 372 548 431 591 c 1
555 560 m 1
 549 560 541 567 541 567 c 1
 461 527 373 410 320 363 c 1
 303 359 279 380 270 397 c 1
 340 457 469 578 482 578 c 0x2a89
 494 578 507 569 512 569 c 1
 501 582 491 602 482 605 c 1
 393 556 340 518 240 417 c 1
 235 422 248 428 235 428 c 0
 220 428 203 442 195 457 c 1
 264 514 361 584 437 634 c 1
 415 649 l 1
 388 628 359 589 348 589 c 0
 334 589 353 600 340 600 c 0
 338 600 173 488 156 465 c 1
 299 309 l 1
 381 390 491 478 555 560 c 1
512 422 m 0
 512 436 500 438 500 443 c 1
 452 438 361 357 298 295 c 1
 297 281 297 249 297 239 c 0
 297 226 304 153 304 116 c 1
 336 143 364 166 385 188 c 0
 397 200 402 223 411 235 c 0
 428 260 481 292 486 322 c 0
 491 350 512 410 512 422 c 0
485 146 m 1
 459 160 441 162 431 156 c 1
 437 151 444 148 450 153 c 1
 455 143 444 132 444 126 c 1
 449 137 466 137 471 132 c 1
 485 146 l 1
291 127 m 1
 291 275 l 2
 291 325 162 437 147 454 c 1
 147 243 l 2
 146 233 246 158 291 127 c 1
238 272 m 1
 237 246 l 1x2d49
 226 240 215 234 208 230 c 1
 202 234 181 248 168 245 c 1
 170 251 168 265 163 286 c 1
 173 291 190 294 207 294 c 1
 209 302 208 340 210 349 c 1
 217 343 216 347 219 344 c 0
 219 329 214 303 214 289 c 0x2d91
 214 284 228 284 238 272 c 1
215 278 m 0
 214 280 197 283 197 285 c 1
 197 280 184 279 184 279 c 2
 189 279 202 273 207 273 c 0
 210 275 217 275 215 278 c 0
229 267 m 1
 228 270 l 1
 219 269 214 267 206 263 c 1
 200 267 186 273 175 275 c 1
 173 271 l 1
 187 269 192 264 205 258 c 1
 206 240 l 1x15a1
 209 240 l 1
 209 260 l 1
 215 264 224 266 229 267 c 1
395 -14 m 0
 177 -14 0 164 0 384 c 0
 0 604 177 783 395 783 c 0
 612 783 789 604 789 384 c 0
 789 164 612 -14 395 -14 c 0
395 16 m 0
 595 16 759 181 759 384 c 0
 759 588 595 753 395 753 c 0
 194 753 30 588 30 384 c 0
 30 181 194 16 395 16 c 0
EndSplineSet
EndChar

StartChar: seven
Encoding: 55 55 24
Width: 789
Flags: W
HStem: 1 99<293 311 293 499.5> 1 228<290 581> 245 134<553.5 645> 391 198 578 190<475.5 488>
VStem: 147 16 147 137<277 277 277 454> 147 144<127 454> 565 209<395 415 415 415> 578 196<460.5 468> 587 187<278 580.5> 706 68<309 331.5>
LayerCount: 2
Fore
SplineSet
774 384 m 0xaa10
 774 172 604 1 395 1 c 0
 185 1 15 172 15 384 c 0
 15 596 185 768 395 768 c 0
 604 768 774 596 774 384 c 0xaa10
706 328 m 0
 706 335 675 411 654 411 c 0
 641 411 592 400 565 395 c 1x7210
 565 415 l 2
 566 428 578 453 578 468 c 0xaa20
 577 495 587 553 587 565 c 0x6a40
 587 596 424 652 403 672 c 1
 136 469 l 1
 126 250 l 2
 126 237 137 224 140 221 c 0
 162 203 202 184 223 168 c 0
 251 146 279 120 293 100 c 1
 311 100 l 1
 392 180 480 251 558 327 c 0
 565 335 563 356 570 362 c 0
 602 386 601 379 625 379 c 0
 665 379 684 357 684 317 c 0
 684 284 641 206 618 201 c 1
 602 226 618 245 574 245 c 0
 533 245 499 208 455 175 c 1
 435 175 425 160 418 144 c 1
 440 141 409 119 405 112 c 1
 421 107 423 124 434 125 c 1
 436 132 433 116 444 118 c 0
 450 119 427 97 433 100 c 1
 444 90 453 126 491 135 c 0
 503 137 487 167 482 177 c 1
 503 198 542 229 566 229 c 0x6a80
 596 229 587 212 610 186 c 1
 655 187 706 290 706 328 c 0
480 538 m 1
 426 489 378 434 325 391 c 1
 352 436 409 477 413 510 c 1
 425 523 458 551 473 556 c 1
 473 551 474 543 480 538 c 1
431 591 m 1
 372 548 304 498 245 449 c 1
 245 455 244 465 250 468 c 0
 304 512 359 560 419 610 c 1
 419 605 426 597 431 591 c 1
555 560 m 1
 491 478 381 390 299 309 c 1
 156 465 l 1
 173 488 338 600 340 600 c 0
 353 600 334 589 348 589 c 0
 359 589 388 628 415 649 c 1
 437 634 l 1
 361 584 264 514 195 457 c 1
 203 442 220 428 235 428 c 0
 248 428 235 422 240 417 c 1
 340 518 393 556 482 605 c 1
 491 602 501 582 512 569 c 1
 507 569 494 578 482 578 c 0x6910
 469 578 340 457 270 397 c 1
 279 380 303 359 320 363 c 1
 373 410 461 527 541 567 c 1
 541 567 549 560 555 560 c 1
512 422 m 0
 512 410 491 350 486 322 c 0
 481 292 428 260 411 235 c 0
 402 223 397 200 385 188 c 0
 364 166 336 143 304 116 c 1
 304 153 297 226 297 239 c 0
 297 249 297 281 298 295 c 1
 361 357 452 438 500 443 c 1
 500 438 512 436 512 422 c 0
485 146 m 1
 471 132 l 1
 466 137 449 137 444 126 c 1
 444 132 455 143 450 153 c 1
 444 148 437 151 431 156 c 1
 441 162 459 160 485 146 c 1
284 277 m 2x6a10
 291 127 l 1
 246 158 146 233 147 243 c 2
 147 454 l 1
 162 437 285 327 284 277 c 2x6a10
237 246 m 1
 238 272 l 1
 228 284 214 284 214 289 c 0
 214 303 219 329 219 344 c 0
 216 347 217 343 210 349 c 1
 208 340 209 302 207 294 c 1
 190 294 173 291 163 286 c 1x6910
 168 265 170 251 168 245 c 1
 181 248 202 234 208 230 c 1
 215 234 226 240 237 246 c 1
215 278 m 0
 217 275 210 275 207 273 c 0
 202 273 189 279 184 279 c 2
 184 279 197 280 197 285 c 1
 197 283 214 280 215 278 c 0
228 270 m 1
 229 267 l 1
 224 266 215 264 209 260 c 1x6c10
 209 240 l 1
 206 240 l 1
 205 258 l 1
 192 264 187 269 173 271 c 1
 175 275 l 1
 186 273 200 267 206 263 c 1
 214 267 219 269 228 270 c 1
EndSplineSet
EndChar

StartChar: eight
Encoding: 56 56 25
Width: 789
Flags: W
HStem: -14 30<294.5 495 294.5 503.5> -14 114<293 311 293 503.5> -14 243<286 581> -14 277 245 134<553.5 645> 391 198 578 205<475.5 488> 753 30<294.5 495>
VStem: 147 16 147 62<243 260 240 454 243 243> 206 85<240 240> 214 77<286.5 296> 237 54<246 246> 578 211<460.5 468> 587 202<274 580.5> 706 83<309 331.5>
LayerCount: 2
Fore
SplineSet
706 328 m 0x2d89
 706 290 655 187 610 186 c 1
 587 212 596 229 566 229 c 0x2d89
 542 229 503 198 482 177 c 1
 487 167 503 137 491 135 c 0
 453 126 444 90 433 100 c 1
 427 97 450 119 444 118 c 0
 433 116 436 132 434 125 c 1
 423 124 421 107 405 112 c 1
 409 119 440 141 418 144 c 1
 425 160 435 175 455 175 c 1
 499 208 533 245 574 245 c 0
 618 245 602 226 618 201 c 1
 641 206 684 284 684 317 c 0
 684 357 665 379 625 379 c 0
 601 379 602 386 570 362 c 0
 563 356 565 335 558 327 c 0
 480 251 392 180 311 100 c 1
 293 100 l 1
 279 120 251 140 223 162 c 0
 202 178 159 203 137 221 c 0
 134 224 129 234 129 247 c 2
 136 469 l 1
 403 672 l 1
 424 652 587 596 587 565 c 0x4d8a
 587 553 577 495 578 468 c 0x2d8c
 578 453 566 428 565 415 c 2
 565 395 l 1
 592 400 641 411 654 411 c 0
 675 411 706 335 706 328 c 0x2d89
480 538 m 1
 474 543 473 551 473 556 c 1
 458 551 425 523 413 510 c 1
 409 477 352 436 325 391 c 1
 378 434 426 489 480 538 c 1
431 591 m 1
 426 597 419 605 419 610 c 1
 359 560 304 512 250 468 c 0
 244 465 245 455 245 449 c 1
 304 498 372 548 431 591 c 1
555 560 m 1
 549 560 541 567 541 567 c 1
 461 527 373 410 320 363 c 1
 303 359 279 380 270 397 c 1
 340 457 469 578 482 578 c 0x2a89
 494 578 507 569 512 569 c 1
 501 582 491 602 482 605 c 1
 393 556 340 518 240 417 c 1
 235 422 248 428 235 428 c 0
 220 428 203 442 195 457 c 1
 264 514 361 584 437 634 c 1
 415 649 l 1
 388 628 359 589 348 589 c 0
 334 589 353 600 340 600 c 0
 338 600 173 488 156 465 c 1
 299 309 l 1
 381 390 491 478 555 560 c 1
512 422 m 0
 512 436 500 438 500 443 c 1
 452 438 361 357 298 295 c 1
 297 281 297 249 297 239 c 0
 297 226 304 153 304 116 c 1
 336 143 364 166 385 188 c 0
 397 200 402 223 411 235 c 0
 428 260 481 292 486 322 c 0
 491 350 512 410 512 422 c 0
485 146 m 1
 459 160 441 162 431 156 c 1
 437 151 444 148 450 153 c 1
 455 143 444 132 444 126 c 1
 449 137 466 137 471 132 c 1
 485 146 l 1
291 127 m 1
 291 275 l 2
 291 325 162 437 147 454 c 1
 147 243 l 2
 146 233 246 158 291 127 c 1
238 272 m 1
 237 246 l 1x2d49
 226 240 215 234 208 230 c 1
 202 234 181 248 168 245 c 1
 170 251 168 265 163 286 c 1
 173 291 190 294 207 294 c 1
 209 302 208 340 210 349 c 1
 217 343 216 347 219 344 c 0
 219 329 214 303 214 289 c 0x2d91
 214 284 228 284 238 272 c 1
215 278 m 0
 214 280 197 283 197 285 c 1
 197 280 184 279 184 279 c 2
 189 279 202 273 207 273 c 0
 210 275 217 275 215 278 c 0
229 267 m 1
 228 270 l 1
 219 269 214 267 206 263 c 1
 200 267 186 273 175 275 c 1
 173 271 l 1
 187 269 192 264 205 258 c 1
 206 240 l 1x15a1
 209 240 l 1
 209 260 l 1
 215 264 224 266 229 267 c 1
395 -14 m 0
 177 -14 0 164 0 384 c 0
 0 604 177 783 395 783 c 0
 612 783 789 604 789 384 c 0
 789 164 612 -14 395 -14 c 0
395 16 m 0
 595 16 759 181 759 384 c 0
 759 588 595 753 395 753 c 0
 194 753 30 588 30 384 c 0
 30 181 194 16 395 16 c 0
EndSplineSet
EndChar

StartChar: nine
Encoding: 57 57 26
Width: 789
Flags: W
HStem: 1 99<293 311 293 499.5> 1 228<290 581> 245 134<553.5 645> 391 198 578 190<475.5 488>
VStem: 147 16 147 137<277 277 277 454> 147 144<127 454> 565 209<395 415 415 415> 578 196<460.5 468> 587 187<278 580.5> 706 68<309 331.5>
LayerCount: 2
Fore
SplineSet
774 384 m 0xaa10
 774 172 604 1 395 1 c 0
 185 1 15 172 15 384 c 0
 15 596 185 768 395 768 c 0
 604 768 774 596 774 384 c 0xaa10
706 328 m 0
 706 335 675 411 654 411 c 0
 641 411 592 400 565 395 c 1x7210
 565 415 l 2
 566 428 578 453 578 468 c 0xaa20
 577 495 587 553 587 565 c 0x6a40
 587 596 424 652 403 672 c 1
 136 469 l 1
 126 250 l 2
 126 237 137 224 140 221 c 0
 162 203 202 184 223 168 c 0
 251 146 279 120 293 100 c 1
 311 100 l 1
 392 180 480 251 558 327 c 0
 565 335 563 356 570 362 c 0
 602 386 601 379 625 379 c 0
 665 379 684 357 684 317 c 0
 684 284 641 206 618 201 c 1
 602 226 618 245 574 245 c 0
 533 245 499 208 455 175 c 1
 435 175 425 160 418 144 c 1
 440 141 409 119 405 112 c 1
 421 107 423 124 434 125 c 1
 436 132 433 116 444 118 c 0
 450 119 427 97 433 100 c 1
 444 90 453 126 491 135 c 0
 503 137 487 167 482 177 c 1
 503 198 542 229 566 229 c 0x6a80
 596 229 587 212 610 186 c 1
 655 187 706 290 706 328 c 0
480 538 m 1
 426 489 378 434 325 391 c 1
 352 436 409 477 413 510 c 1
 425 523 458 551 473 556 c 1
 473 551 474 543 480 538 c 1
431 591 m 1
 372 548 304 498 245 449 c 1
 245 455 244 465 250 468 c 0
 304 512 359 560 419 610 c 1
 419 605 426 597 431 591 c 1
555 560 m 1
 491 478 381 390 299 309 c 1
 156 465 l 1
 173 488 338 600 340 600 c 0
 353 600 334 589 348 589 c 0
 359 589 388 628 415 649 c 1
 437 634 l 1
 361 584 264 514 195 457 c 1
 203 442 220 428 235 428 c 0
 248 428 235 422 240 417 c 1
 340 518 393 556 482 605 c 1
 491 602 501 582 512 569 c 1
 507 569 494 578 482 578 c 0x6910
 469 578 340 457 270 397 c 1
 279 380 303 359 320 363 c 1
 373 410 461 527 541 567 c 1
 541 567 549 560 555 560 c 1
512 422 m 0
 512 410 491 350 486 322 c 0
 481 292 428 260 411 235 c 0
 402 223 397 200 385 188 c 0
 364 166 336 143 304 116 c 1
 304 153 297 226 297 239 c 0
 297 249 297 281 298 295 c 1
 361 357 452 438 500 443 c 1
 500 438 512 436 512 422 c 0
485 146 m 1
 471 132 l 1
 466 137 449 137 444 126 c 1
 444 132 455 143 450 153 c 1
 444 148 437 151 431 156 c 1
 441 162 459 160 485 146 c 1
284 277 m 2x6a10
 291 127 l 1
 246 158 146 233 147 243 c 2
 147 454 l 1
 162 437 285 327 284 277 c 2x6a10
237 246 m 1
 238 272 l 1
 228 284 214 284 214 289 c 0
 214 303 219 329 219 344 c 0
 216 347 217 343 210 349 c 1
 208 340 209 302 207 294 c 1
 190 294 173 291 163 286 c 1x6910
 168 265 170 251 168 245 c 1
 181 248 202 234 208 230 c 1
 215 234 226 240 237 246 c 1
215 278 m 0
 217 275 210 275 207 273 c 0
 202 273 189 279 184 279 c 2
 184 279 197 280 197 285 c 1
 197 283 214 280 215 278 c 0
228 270 m 1
 229 267 l 1
 224 266 215 264 209 260 c 1x6c10
 209 240 l 1
 206 240 l 1
 205 258 l 1
 192 264 187 269 173 271 c 1
 175 275 l 1
 186 273 200 267 206 263 c 1
 214 267 219 269 228 270 c 1
EndSplineSet
EndChar

StartChar: colon
Encoding: 58 58 27
Width: 789
Flags: W
HStem: -14 30<294.5 495 294.5 503.5> -14 114<293 311 293 503.5> -14 243<286 581> -14 277 245 134<553.5 645> 391 198 578 205<475.5 488> 753 30<294.5 495>
VStem: 147 16 147 62<243 260 240 454 243 243> 206 85<240 240> 214 77<286.5 296> 237 54<246 246> 578 211<460.5 468> 587 202<274 580.5> 706 83<309 331.5>
LayerCount: 2
Fore
SplineSet
706 328 m 0x2d89
 706 290 655 187 610 186 c 1
 587 212 596 229 566 229 c 0x2d89
 542 229 503 198 482 177 c 1
 487 167 503 137 491 135 c 0
 453 126 444 90 433 100 c 1
 427 97 450 119 444 118 c 0
 433 116 436 132 434 125 c 1
 423 124 421 107 405 112 c 1
 409 119 440 141 418 144 c 1
 425 160 435 175 455 175 c 1
 499 208 533 245 574 245 c 0
 618 245 602 226 618 201 c 1
 641 206 684 284 684 317 c 0
 684 357 665 379 625 379 c 0
 601 379 602 386 570 362 c 0
 563 356 565 335 558 327 c 0
 480 251 392 180 311 100 c 1
 293 100 l 1
 279 120 251 140 223 162 c 0
 202 178 159 203 137 221 c 0
 134 224 129 234 129 247 c 2
 136 469 l 1
 403 672 l 1
 424 652 587 596 587 565 c 0x4d8a
 587 553 577 495 578 468 c 0x2d8c
 578 453 566 428 565 415 c 2
 565 395 l 1
 592 400 641 411 654 411 c 0
 675 411 706 335 706 328 c 0x2d89
480 538 m 1
 474 543 473 551 473 556 c 1
 458 551 425 523 413 510 c 1
 409 477 352 436 325 391 c 1
 378 434 426 489 480 538 c 1
431 591 m 1
 426 597 419 605 419 610 c 1
 359 560 304 512 250 468 c 0
 244 465 245 455 245 449 c 1
 304 498 372 548 431 591 c 1
555 560 m 1
 549 560 541 567 541 567 c 1
 461 527 373 410 320 363 c 1
 303 359 279 380 270 397 c 1
 340 457 469 578 482 578 c 0x2a89
 494 578 507 569 512 569 c 1
 501 582 491 602 482 605 c 1
 393 556 340 518 240 417 c 1
 235 422 248 428 235 428 c 0
 220 428 203 442 195 457 c 1
 264 514 361 584 437 634 c 1
 415 649 l 1
 388 628 359 589 348 589 c 0
 334 589 353 600 340 600 c 0
 338 600 173 488 156 465 c 1
 299 309 l 1
 381 390 491 478 555 560 c 1
512 422 m 0
 512 436 500 438 500 443 c 1
 452 438 361 357 298 295 c 1
 297 281 297 249 297 239 c 0
 297 226 304 153 304 116 c 1
 336 143 364 166 385 188 c 0
 397 200 402 223 411 235 c 0
 428 260 481 292 486 322 c 0
 491 350 512 410 512 422 c 0
485 146 m 1
 459 160 441 162 431 156 c 1
 437 151 444 148 450 153 c 1
 455 143 444 132 444 126 c 1
 449 137 466 137 471 132 c 1
 485 146 l 1
291 127 m 1
 291 275 l 2
 291 325 162 437 147 454 c 1
 147 243 l 2
 146 233 246 158 291 127 c 1
238 272 m 1
 237 246 l 1x2d49
 226 240 215 234 208 230 c 1
 202 234 181 248 168 245 c 1
 170 251 168 265 163 286 c 1
 173 291 190 294 207 294 c 1
 209 302 208 340 210 349 c 1
 217 343 216 347 219 344 c 0
 219 329 214 303 214 289 c 0x2d91
 214 284 228 284 238 272 c 1
215 278 m 0
 214 280 197 283 197 285 c 1
 197 280 184 279 184 279 c 2
 189 279 202 273 207 273 c 0
 210 275 217 275 215 278 c 0
229 267 m 1
 228 270 l 1
 219 269 214 267 206 263 c 1
 200 267 186 273 175 275 c 1
 173 271 l 1
 187 269 192 264 205 258 c 1
 206 240 l 1x15a1
 209 240 l 1
 209 260 l 1
 215 264 224 266 229 267 c 1
395 -14 m 0
 177 -14 0 164 0 384 c 0
 0 604 177 783 395 783 c 0
 612 783 789 604 789 384 c 0
 789 164 612 -14 395 -14 c 0
395 16 m 0
 595 16 759 181 759 384 c 0
 759 588 595 753 395 753 c 0
 194 753 30 588 30 384 c 0
 30 181 194 16 395 16 c 0
EndSplineSet
EndChar

StartChar: semicolon
Encoding: 59 59 28
Width: 789
Flags: W
HStem: -14 30<294.5 495 294.5 503.5> -14 114<293 311 293 503.5> -14 243<286 581> -14 277 245 134<553.5 645> 391 198 578 205<475.5 488> 753 30<294.5 495>
VStem: 147 16 147 62<243 260 240 454 243 243> 206 85<240 240> 214 77<286.5 296> 237 54<246 246> 578 211<460.5 468> 587 202<274 580.5> 706 83<309 331.5>
LayerCount: 2
Fore
SplineSet
706 328 m 0x2d89
 706 290 655 187 610 186 c 1
 587 212 596 229 566 229 c 0x2d89
 542 229 503 198 482 177 c 1
 487 167 503 137 491 135 c 0
 453 126 444 90 433 100 c 1
 427 97 450 119 444 118 c 0
 433 116 436 132 434 125 c 1
 423 124 421 107 405 112 c 1
 409 119 440 141 418 144 c 1
 425 160 435 175 455 175 c 1
 499 208 533 245 574 245 c 0
 618 245 602 226 618 201 c 1
 641 206 684 284 684 317 c 0
 684 357 665 379 625 379 c 0
 601 379 602 386 570 362 c 0
 563 356 565 335 558 327 c 0
 480 251 392 180 311 100 c 1
 293 100 l 1
 279 120 251 140 223 162 c 0
 202 178 159 203 137 221 c 0
 134 224 129 234 129 247 c 2
 136 469 l 1
 403 672 l 1
 424 652 587 596 587 565 c 0x4d8a
 587 553 577 495 578 468 c 0x2d8c
 578 453 566 428 565 415 c 2
 565 395 l 1
 592 400 641 411 654 411 c 0
 675 411 706 335 706 328 c 0x2d89
480 538 m 1
 474 543 473 551 473 556 c 1
 458 551 425 523 413 510 c 1
 409 477 352 436 325 391 c 1
 378 434 426 489 480 538 c 1
431 591 m 1
 426 597 419 605 419 610 c 1
 359 560 304 512 250 468 c 0
 244 465 245 455 245 449 c 1
 304 498 372 548 431 591 c 1
555 560 m 1
 549 560 541 567 541 567 c 1
 461 527 373 410 320 363 c 1
 303 359 279 380 270 397 c 1
 340 457 469 578 482 578 c 0x2a89
 494 578 507 569 512 569 c 1
 501 582 491 602 482 605 c 1
 393 556 340 518 240 417 c 1
 235 422 248 428 235 428 c 0
 220 428 203 442 195 457 c 1
 264 514 361 584 437 634 c 1
 415 649 l 1
 388 628 359 589 348 589 c 0
 334 589 353 600 340 600 c 0
 338 600 173 488 156 465 c 1
 299 309 l 1
 381 390 491 478 555 560 c 1
512 422 m 0
 512 436 500 438 500 443 c 1
 452 438 361 357 298 295 c 1
 297 281 297 249 297 239 c 0
 297 226 304 153 304 116 c 1
 336 143 364 166 385 188 c 0
 397 200 402 223 411 235 c 0
 428 260 481 292 486 322 c 0
 491 350 512 410 512 422 c 0
485 146 m 1
 459 160 441 162 431 156 c 1
 437 151 444 148 450 153 c 1
 455 143 444 132 444 126 c 1
 449 137 466 137 471 132 c 1
 485 146 l 1
291 127 m 1
 291 275 l 2
 291 325 162 437 147 454 c 1
 147 243 l 2
 146 233 246 158 291 127 c 1
238 272 m 1
 237 246 l 1x2d49
 226 240 215 234 208 230 c 1
 202 234 181 248 168 245 c 1
 170 251 168 265 163 286 c 1
 173 291 190 294 207 294 c 1
 209 302 208 340 210 349 c 1
 217 343 216 347 219 344 c 0
 219 329 214 303 214 289 c 0x2d91
 214 284 228 284 238 272 c 1
215 278 m 0
 214 280 197 283 197 285 c 1
 197 280 184 279 184 279 c 2
 189 279 202 273 207 273 c 0
 210 275 217 275 215 278 c 0
229 267 m 1
 228 270 l 1
 219 269 214 267 206 263 c 1
 200 267 186 273 175 275 c 1
 173 271 l 1
 187 269 192 264 205 258 c 1
 206 240 l 1x15a1
 209 240 l 1
 209 260 l 1
 215 264 224 266 229 267 c 1
395 -14 m 0
 177 -14 0 164 0 384 c 0
 0 604 177 783 395 783 c 0
 612 783 789 604 789 384 c 0
 789 164 612 -14 395 -14 c 0
395 16 m 0
 595 16 759 181 759 384 c 0
 759 588 595 753 395 753 c 0
 194 753 30 588 30 384 c 0
 30 181 194 16 395 16 c 0
EndSplineSet
EndChar

StartChar: less
Encoding: 60 60 29
Width: 789
Flags: W
HStem: -14 30<294.5 495 294.5 503.5> -14 114<293 311 293 503.5> -14 243<286 581> -14 277 245 134<553.5 645> 391 198 578 205<475.5 488> 753 30<294.5 495>
VStem: 147 16 147 62<243 260 240 454 243 243> 206 85<240 240> 214 77<286.5 296> 237 54<246 246> 578 211<460.5 468> 587 202<274 580.5> 706 83<309 331.5>
LayerCount: 2
Fore
SplineSet
706 328 m 0x2d89
 706 290 655 187 610 186 c 1
 587 212 596 229 566 229 c 0x2d89
 542 229 503 198 482 177 c 1
 487 167 503 137 491 135 c 0
 453 126 444 90 433 100 c 1
 427 97 450 119 444 118 c 0
 433 116 436 132 434 125 c 1
 423 124 421 107 405 112 c 1
 409 119 440 141 418 144 c 1
 425 160 435 175 455 175 c 1
 499 208 533 245 574 245 c 0
 618 245 602 226 618 201 c 1
 641 206 684 284 684 317 c 0
 684 357 665 379 625 379 c 0
 601 379 602 386 570 362 c 0
 563 356 565 335 558 327 c 0
 480 251 392 180 311 100 c 1
 293 100 l 1
 279 120 251 140 223 162 c 0
 202 178 159 203 137 221 c 0
 134 224 129 234 129 247 c 2
 136 469 l 1
 403 672 l 1
 424 652 587 596 587 565 c 0x4d8a
 587 553 577 495 578 468 c 0x2d8c
 578 453 566 428 565 415 c 2
 565 395 l 1
 592 400 641 411 654 411 c 0
 675 411 706 335 706 328 c 0x2d89
480 538 m 1
 474 543 473 551 473 556 c 1
 458 551 425 523 413 510 c 1
 409 477 352 436 325 391 c 1
 378 434 426 489 480 538 c 1
431 591 m 1
 426 597 419 605 419 610 c 1
 359 560 304 512 250 468 c 0
 244 465 245 455 245 449 c 1
 304 498 372 548 431 591 c 1
555 560 m 1
 549 560 541 567 541 567 c 1
 461 527 373 410 320 363 c 1
 303 359 279 380 270 397 c 1
 340 457 469 578 482 578 c 0x2a89
 494 578 507 569 512 569 c 1
 501 582 491 602 482 605 c 1
 393 556 340 518 240 417 c 1
 235 422 248 428 235 428 c 0
 220 428 203 442 195 457 c 1
 264 514 361 584 437 634 c 1
 415 649 l 1
 388 628 359 589 348 589 c 0
 334 589 353 600 340 600 c 0
 338 600 173 488 156 465 c 1
 299 309 l 1
 381 390 491 478 555 560 c 1
512 422 m 0
 512 436 500 438 500 443 c 1
 452 438 361 357 298 295 c 1
 297 281 297 249 297 239 c 0
 297 226 304 153 304 116 c 1
 336 143 364 166 385 188 c 0
 397 200 402 223 411 235 c 0
 428 260 481 292 486 322 c 0
 491 350 512 410 512 422 c 0
485 146 m 1
 459 160 441 162 431 156 c 1
 437 151 444 148 450 153 c 1
 455 143 444 132 444 126 c 1
 449 137 466 137 471 132 c 1
 485 146 l 1
291 127 m 1
 291 275 l 2
 291 325 162 437 147 454 c 1
 147 243 l 2
 146 233 246 158 291 127 c 1
238 272 m 1
 237 246 l 1x2d49
 226 240 215 234 208 230 c 1
 202 234 181 248 168 245 c 1
 170 251 168 265 163 286 c 1
 173 291 190 294 207 294 c 1
 209 302 208 340 210 349 c 1
 217 343 216 347 219 344 c 0
 219 329 214 303 214 289 c 0x2d91
 214 284 228 284 238 272 c 1
215 278 m 0
 214 280 197 283 197 285 c 1
 197 280 184 279 184 279 c 2
 189 279 202 273 207 273 c 0
 210 275 217 275 215 278 c 0
229 267 m 1
 228 270 l 1
 219 269 214 267 206 263 c 1
 200 267 186 273 175 275 c 1
 173 271 l 1
 187 269 192 264 205 258 c 1
 206 240 l 1x15a1
 209 240 l 1
 209 260 l 1
 215 264 224 266 229 267 c 1
395 -14 m 0
 177 -14 0 164 0 384 c 0
 0 604 177 783 395 783 c 0
 612 783 789 604 789 384 c 0
 789 164 612 -14 395 -14 c 0
395 16 m 0
 595 16 759 181 759 384 c 0
 759 588 595 753 395 753 c 0
 194 753 30 588 30 384 c 0
 30 181 194 16 395 16 c 0
EndSplineSet
EndChar

StartChar: equal
Encoding: 61 61 30
Width: 789
Flags: W
HStem: -14 30<294.5 495 294.5 503.5> -14 114<293 311 293 503.5> -14 243<286 581> -14 277 245 134<553.5 645> 391 198 578 205<475.5 488> 753 30<294.5 495>
VStem: 147 16 147 62<243 260 240 454 243 243> 206 85<240 240> 214 77<286.5 296> 237 54<246 246> 578 211<460.5 468> 587 202<274 580.5> 706 83<309 331.5>
LayerCount: 2
Fore
SplineSet
706 328 m 0x2d89
 706 290 655 187 610 186 c 1
 587 212 596 229 566 229 c 0x2d89
 542 229 503 198 482 177 c 1
 487 167 503 137 491 135 c 0
 453 126 444 90 433 100 c 1
 427 97 450 119 444 118 c 0
 433 116 436 132 434 125 c 1
 423 124 421 107 405 112 c 1
 409 119 440 141 418 144 c 1
 425 160 435 175 455 175 c 1
 499 208 533 245 574 245 c 0
 618 245 602 226 618 201 c 1
 641 206 684 284 684 317 c 0
 684 357 665 379 625 379 c 0
 601 379 602 386 570 362 c 0
 563 356 565 335 558 327 c 0
 480 251 392 180 311 100 c 1
 293 100 l 1
 279 120 251 140 223 162 c 0
 202 178 159 203 137 221 c 0
 134 224 129 234 129 247 c 2
 136 469 l 1
 403 672 l 1
 424 652 587 596 587 565 c 0x4d8a
 587 553 577 495 578 468 c 0x2d8c
 578 453 566 428 565 415 c 2
 565 395 l 1
 592 400 641 411 654 411 c 0
 675 411 706 335 706 328 c 0x2d89
480 538 m 1
 474 543 473 551 473 556 c 1
 458 551 425 523 413 510 c 1
 409 477 352 436 325 391 c 1
 378 434 426 489 480 538 c 1
431 591 m 1
 426 597 419 605 419 610 c 1
 359 560 304 512 250 468 c 0
 244 465 245 455 245 449 c 1
 304 498 372 548 431 591 c 1
555 560 m 1
 549 560 541 567 541 567 c 1
 461 527 373 410 320 363 c 1
 303 359 279 380 270 397 c 1
 340 457 469 578 482 578 c 0x2a89
 494 578 507 569 512 569 c 1
 501 582 491 602 482 605 c 1
 393 556 340 518 240 417 c 1
 235 422 248 428 235 428 c 0
 220 428 203 442 195 457 c 1
 264 514 361 584 437 634 c 1
 415 649 l 1
 388 628 359 589 348 589 c 0
 334 589 353 600 340 600 c 0
 338 600 173 488 156 465 c 1
 299 309 l 1
 381 390 491 478 555 560 c 1
512 422 m 0
 512 436 500 438 500 443 c 1
 452 438 361 357 298 295 c 1
 297 281 297 249 297 239 c 0
 297 226 304 153 304 116 c 1
 336 143 364 166 385 188 c 0
 397 200 402 223 411 235 c 0
 428 260 481 292 486 322 c 0
 491 350 512 410 512 422 c 0
485 146 m 1
 459 160 441 162 431 156 c 1
 437 151 444 148 450 153 c 1
 455 143 444 132 444 126 c 1
 449 137 466 137 471 132 c 1
 485 146 l 1
291 127 m 1
 291 275 l 2
 291 325 162 437 147 454 c 1
 147 243 l 2
 146 233 246 158 291 127 c 1
238 272 m 1
 237 246 l 1x2d49
 226 240 215 234 208 230 c 1
 202 234 181 248 168 245 c 1
 170 251 168 265 163 286 c 1
 173 291 190 294 207 294 c 1
 209 302 208 340 210 349 c 1
 217 343 216 347 219 344 c 0
 219 329 214 303 214 289 c 0x2d91
 214 284 228 284 238 272 c 1
215 278 m 0
 214 280 197 283 197 285 c 1
 197 280 184 279 184 279 c 2
 189 279 202 273 207 273 c 0
 210 275 217 275 215 278 c 0
229 267 m 1
 228 270 l 1
 219 269 214 267 206 263 c 1
 200 267 186 273 175 275 c 1
 173 271 l 1
 187 269 192 264 205 258 c 1
 206 240 l 1x15a1
 209 240 l 1
 209 260 l 1
 215 264 224 266 229 267 c 1
395 -14 m 0
 177 -14 0 164 0 384 c 0
 0 604 177 783 395 783 c 0
 612 783 789 604 789 384 c 0
 789 164 612 -14 395 -14 c 0
395 16 m 0
 595 16 759 181 759 384 c 0
 759 588 595 753 395 753 c 0
 194 753 30 588 30 384 c 0
 30 181 194 16 395 16 c 0
EndSplineSet
EndChar

StartChar: greater
Encoding: 62 62 31
Width: 789
Flags: W
HStem: -14 30<294.5 495 294.5 503.5> -14 114<293 311 293 503.5> -14 243<286 581> -14 277 245 134<553.5 645> 391 198 578 205<475.5 488> 753 30<294.5 495>
VStem: 147 16 147 62<243 260 240 454 243 243> 206 85<240 240> 214 77<286.5 296> 237 54<246 246> 578 211<460.5 468> 587 202<274 580.5> 706 83<309 331.5>
LayerCount: 2
Fore
SplineSet
706 328 m 0x2d89
 706 290 655 187 610 186 c 1
 587 212 596 229 566 229 c 0x2d89
 542 229 503 198 482 177 c 1
 487 167 503 137 491 135 c 0
 453 126 444 90 433 100 c 1
 427 97 450 119 444 118 c 0
 433 116 436 132 434 125 c 1
 423 124 421 107 405 112 c 1
 409 119 440 141 418 144 c 1
 425 160 435 175 455 175 c 1
 499 208 533 245 574 245 c 0
 618 245 602 226 618 201 c 1
 641 206 684 284 684 317 c 0
 684 357 665 379 625 379 c 0
 601 379 602 386 570 362 c 0
 563 356 565 335 558 327 c 0
 480 251 392 180 311 100 c 1
 293 100 l 1
 279 120 251 140 223 162 c 0
 202 178 159 203 137 221 c 0
 134 224 129 234 129 247 c 2
 136 469 l 1
 403 672 l 1
 424 652 587 596 587 565 c 0x4d8a
 587 553 577 495 578 468 c 0x2d8c
 578 453 566 428 565 415 c 2
 565 395 l 1
 592 400 641 411 654 411 c 0
 675 411 706 335 706 328 c 0x2d89
480 538 m 1
 474 543 473 551 473 556 c 1
 458 551 425 523 413 510 c 1
 409 477 352 436 325 391 c 1
 378 434 426 489 480 538 c 1
431 591 m 1
 426 597 419 605 419 610 c 1
 359 560 304 512 250 468 c 0
 244 465 245 455 245 449 c 1
 304 498 372 548 431 591 c 1
555 560 m 1
 549 560 541 567 541 567 c 1
 461 527 373 410 320 363 c 1
 303 359 279 380 270 397 c 1
 340 457 469 578 482 578 c 0x2a89
 494 578 507 569 512 569 c 1
 501 582 491 602 482 605 c 1
 393 556 340 518 240 417 c 1
 235 422 248 428 235 428 c 0
 220 428 203 442 195 457 c 1
 264 514 361 584 437 634 c 1
 415 649 l 1
 388 628 359 589 348 589 c 0
 334 589 353 600 340 600 c 0
 338 600 173 488 156 465 c 1
 299 309 l 1
 381 390 491 478 555 560 c 1
512 422 m 0
 512 436 500 438 500 443 c 1
 452 438 361 357 298 295 c 1
 297 281 297 249 297 239 c 0
 297 226 304 153 304 116 c 1
 336 143 364 166 385 188 c 0
 397 200 402 223 411 235 c 0
 428 260 481 292 486 322 c 0
 491 350 512 410 512 422 c 0
485 146 m 1
 459 160 441 162 431 156 c 1
 437 151 444 148 450 153 c 1
 455 143 444 132 444 126 c 1
 449 137 466 137 471 132 c 1
 485 146 l 1
291 127 m 1
 291 275 l 2
 291 325 162 437 147 454 c 1
 147 243 l 2
 146 233 246 158 291 127 c 1
238 272 m 1
 237 246 l 1x2d49
 226 240 215 234 208 230 c 1
 202 234 181 248 168 245 c 1
 170 251 168 265 163 286 c 1
 173 291 190 294 207 294 c 1
 209 302 208 340 210 349 c 1
 217 343 216 347 219 344 c 0
 219 329 214 303 214 289 c 0x2d91
 214 284 228 284 238 272 c 1
215 278 m 0
 214 280 197 283 197 285 c 1
 197 280 184 279 184 279 c 2
 189 279 202 273 207 273 c 0
 210 275 217 275 215 278 c 0
229 267 m 1
 228 270 l 1
 219 269 214 267 206 263 c 1
 200 267 186 273 175 275 c 1
 173 271 l 1
 187 269 192 264 205 258 c 1
 206 240 l 1x15a1
 209 240 l 1
 209 260 l 1
 215 264 224 266 229 267 c 1
395 -14 m 0
 177 -14 0 164 0 384 c 0
 0 604 177 783 395 783 c 0
 612 783 789 604 789 384 c 0
 789 164 612 -14 395 -14 c 0
395 16 m 0
 595 16 759 181 759 384 c 0
 759 588 595 753 395 753 c 0
 194 753 30 588 30 384 c 0
 30 181 194 16 395 16 c 0
EndSplineSet
EndChar

StartChar: question
Encoding: 63 63 32
Width: 789
Flags: W
HStem: -14 30<294.5 495 294.5 503.5> -14 114<293 311 293 503.5> -14 243<286 581> -14 277 245 134<553.5 645> 391 198 578 205<475.5 488> 753 30<294.5 495>
VStem: 147 16 147 62<243 260 240 454 243 243> 206 85<240 240> 214 77<286.5 296> 237 54<246 246> 578 211<460.5 468> 587 202<274 580.5> 706 83<309 331.5>
LayerCount: 2
Fore
SplineSet
706 328 m 0x2d89
 706 290 655 187 610 186 c 1
 587 212 596 229 566 229 c 0x2d89
 542 229 503 198 482 177 c 1
 487 167 503 137 491 135 c 0
 453 126 444 90 433 100 c 1
 427 97 450 119 444 118 c 0
 433 116 436 132 434 125 c 1
 423 124 421 107 405 112 c 1
 409 119 440 141 418 144 c 1
 425 160 435 175 455 175 c 1
 499 208 533 245 574 245 c 0
 618 245 602 226 618 201 c 1
 641 206 684 284 684 317 c 0
 684 357 665 379 625 379 c 0
 601 379 602 386 570 362 c 0
 563 356 565 335 558 327 c 0
 480 251 392 180 311 100 c 1
 293 100 l 1
 279 120 251 140 223 162 c 0
 202 178 159 203 137 221 c 0
 134 224 129 234 129 247 c 2
 136 469 l 1
 403 672 l 1
 424 652 587 596 587 565 c 0x4d8a
 587 553 577 495 578 468 c 0x2d8c
 578 453 566 428 565 415 c 2
 565 395 l 1
 592 400 641 411 654 411 c 0
 675 411 706 335 706 328 c 0x2d89
480 538 m 1
 474 543 473 551 473 556 c 1
 458 551 425 523 413 510 c 1
 409 477 352 436 325 391 c 1
 378 434 426 489 480 538 c 1
431 591 m 1
 426 597 419 605 419 610 c 1
 359 560 304 512 250 468 c 0
 244 465 245 455 245 449 c 1
 304 498 372 548 431 591 c 1
555 560 m 1
 549 560 541 567 541 567 c 1
 461 527 373 410 320 363 c 1
 303 359 279 380 270 397 c 1
 340 457 469 578 482 578 c 0x2a89
 494 578 507 569 512 569 c 1
 501 582 491 602 482 605 c 1
 393 556 340 518 240 417 c 1
 235 422 248 428 235 428 c 0
 220 428 203 442 195 457 c 1
 264 514 361 584 437 634 c 1
 415 649 l 1
 388 628 359 589 348 589 c 0
 334 589 353 600 340 600 c 0
 338 600 173 488 156 465 c 1
 299 309 l 1
 381 390 491 478 555 560 c 1
512 422 m 0
 512 436 500 438 500 443 c 1
 452 438 361 357 298 295 c 1
 297 281 297 249 297 239 c 0
 297 226 304 153 304 116 c 1
 336 143 364 166 385 188 c 0
 397 200 402 223 411 235 c 0
 428 260 481 292 486 322 c 0
 491 350 512 410 512 422 c 0
485 146 m 1
 459 160 441 162 431 156 c 1
 437 151 444 148 450 153 c 1
 455 143 444 132 444 126 c 1
 449 137 466 137 471 132 c 1
 485 146 l 1
291 127 m 1
 291 275 l 2
 291 325 162 437 147 454 c 1
 147 243 l 2
 146 233 246 158 291 127 c 1
238 272 m 1
 237 246 l 1x2d49
 226 240 215 234 208 230 c 1
 202 234 181 248 168 245 c 1
 170 251 168 265 163 286 c 1
 173 291 190 294 207 294 c 1
 209 302 208 340 210 349 c 1
 217 343 216 347 219 344 c 0
 219 329 214 303 214 289 c 0x2d91
 214 284 228 284 238 272 c 1
215 278 m 0
 214 280 197 283 197 285 c 1
 197 280 184 279 184 279 c 2
 189 279 202 273 207 273 c 0
 210 275 217 275 215 278 c 0
229 267 m 1
 228 270 l 1
 219 269 214 267 206 263 c 1
 200 267 186 273 175 275 c 1
 173 271 l 1
 187 269 192 264 205 258 c 1
 206 240 l 1x15a1
 209 240 l 1
 209 260 l 1
 215 264 224 266 229 267 c 1
395 -14 m 0
 177 -14 0 164 0 384 c 0
 0 604 177 783 395 783 c 0
 612 783 789 604 789 384 c 0
 789 164 612 -14 395 -14 c 0
395 16 m 0
 595 16 759 181 759 384 c 0
 759 588 595 753 395 753 c 0
 194 753 30 588 30 384 c 0
 30 181 194 16 395 16 c 0
EndSplineSet
EndChar

StartChar: at
Encoding: 64 64 33
Width: 786
Flags: W
HStem: 22 50 611 147 708 50
VStem: 19 50 706 50
LayerCount: 2
Fore
SplineSet
299 532 m 1x98
 574 257 l 2
 590 242 614 233 653 272 c 1
 663 261 l 1
 516 114 l 1
 506 124 l 1
 544 163 535 188 520 203 c 2
 245 478 l 1
 207 440 164 401 170 363 c 0
 174 338 188 318 201 297 c 1
 191 288 l 1
 89 390 l 1
 389 689 l 1
 490 587 l 1
 481 577 l 1
 400 635 375 607 338 570 c 2
 299 532 l 1x98
127 650 m 0
 271 794 504 794 648 650 c 0
 791 506 791 273 648 130 c 0
 504 -14 271 -14 127 130 c 0
 -17 273 -17 506 127 650 c 0
163 615 m 0
 38 491 38 289 163 165 c 0
 287 41 488 41 612 165 c 0
 737 289 737 491 612 615 c 0
 488 739 287 739 163 615 c 0
EndSplineSet
EndChar

StartChar: A
Encoding: 65 65 34
Width: 650
Flags: W
HStem: -220 21G<71.2368 101.746> 49 31<409 527> 86 36<442 565> 252 38<275 314> 300 36<271 359> 1035 20G<589.236 602.497>
LayerCount: 2
Fore
SplineSet
196 -42 m 1
 259 -90 l 1
 325 18 l 1
 389 -124 l 1
 467 -156 l 1
 563 13 l 1
 595 -128 l 1
 648 -51 l 1
 672 -68 l 1
 587 -193 l 1
 545 -83 l 1
 486 -196 l 1
 375 -156 l 1
 316 -46 l 1
 277 -159 l 1
 210 -78 l 1
 84 -220 l 1
 -13 -68 l 1
 12 -52 l 1
 81 -159 l 1
 196 -42 l 1
215 797 m 1
 127 975 l 1
 15 850 l 1
 -7 870 l 1
 134 1028 l 1
 226 863 l 1
 317 950 l 1
 357 971 l 1
 431 791 l 1
 470 869 l 1
 542 784 l 1
 593 1055 l 1
 678 876 l 1
 650 866 l 1
 609 950 l 1
 581 685 l 1
 476 814 l 1
 428 719 l 1
 348 931 l 1
 328 910 l 1
 215 797 l 1
386 336 m 1
 442 122 l 1
 565 125 l 1
 459 660 l 1
 283 650 l 1
 145 135 l 1
 222 119 l 1
 248 332 l 1
 386 336 l 1
607 91 m 1
 415 86 l 1
 359 300 l 1
 271 297 l 1
 243 86 l 1
 104 105 l 1
 257 680 l 1
 488 697 l 1
 607 91 l 1
261 372 m 1
 365 607 l 1
 389 384 l 1
 261 372 l 1
364 413 m 1
 351 519 l 1
 302 409 l 1
 364 413 l 1
314 249 m 1
 275 252 l 1
 275 290 l 1
 354 293 l 1
 409 80 l 1
 527 84 l 1
 536 51 l 1
 366 49 l 1
 314 249 l 1
244 641 m 1
 228 606 l 1
 89 99 l 1
 175 84 l 1
 214 80 l 1
 192 43 l 1
 28 66 l 1
 199 641 l 1
 244 641 l 1
EndSplineSet
EndChar

StartChar: B
Encoding: 66 66 35
Width: 702
Flags: W
HStem: -220 20 426 20G 490 33 608 37<416 445> 678 47<226 226 226 507> 1052 20G<660 660>
VStem: 553 32
LayerCount: 2
Fore
SplineSet
81 -159 m 1
 180 22 l 1
 268 -127 l 1
 379 31 l 1
 486 -47 l 1
 592 124 l 1
 620 90 636 -29 665 -96 c 1
 700 -51 l 1
 725 -68 l 1
 640 -193 l 1
 585 32 l 1
 490 -121 l 1
 388 -10 l 1
 383 -18 290 -145 251 -189 c 1
 182 -25 l 1
 84 -220 l 1
 -13 -68 l 1
 12 -52 l 1
 81 -159 l 1
124 829 m 1
 220 1041 l 1
 311 848 l 1
 376 982 l 1
 453 824 l 1
 551 1025 l 1
 562 965 593 820 597 773 c 1
 660 1072 l 1
 702 893 l 1
 702 835 l 1
 665 910 l 1
 635 834 621 732 597 685 c 1
 533 915 l 1
 448 778 l 1
 377 901 l 1
 311 788 l 1
 222 963 l 1
 144 764 l 1
 -1 866 l 1
 3 903 l 1
 124 829 l 1
226 678 m 1
 150 179 l 1
 480 127 l 1
 618 245 l 1
 560 347 l 1
 278 428 l 1
 553 446 l 1
 550 547 l 1
 507 678 l 1
 226 678 l 1
487 102 m 1
 106 162 l 1
 192 725 l 1
 529 725 l 1
 581 565 l 1
 585 426 l 1
 475 419 l 1
 579 389 l 1
 658 250 l 1
 487 102 l 1
325 602 m 1
 310 517 l 1
 431 523 l 1
 416 608 l 1
 325 602 l 1
472 490 m 1
 268 480 l 1
 295 635 l 1
 445 645 l 1
 472 490 l 1
301 332 m 1
 280 248 l 1
 378 216 l 1
 407 284 l 1
 301 332 l 1
397 172 m 1
 238 225 l 1
 277 382 l 1
 453 301 l 1
 397 172 l 1
126 687 m 1
 181 684 l 1
 97 154 l 1
 457 96 l 1
 420 64 l 1
 40 124 l 1
 126 687 l 1
EndSplineSet
EndChar

StartChar: C
Encoding: 67 67 36
Width: 609
Flags: W
HStem: -220 20 200 33<396 424> 251 320<127 384> 537 34 1041 20G<571 571>
VStem: 25 57<331 331 331 558 309 331> 92 35<342 571 342 586 338 571>
LayerCount: 2
Fore
SplineSet
434 -76 m 1xde
 498 63 l 1
 550 -132 l 1
 603 -55 l 1
 628 -72 l 1
 542 -196 l 1
 492 3 l 1
 438 -122 l 1
 365 -33 l 1
 291 -200 l 1
 184 -38 l 1
 93 -220 l 1
 -4 -68 l 1
 21 -52 l 1
 90 -159 l 1
 183 26 l 1
 226 -47 281 -122 286 -126 c 1
 369 22 l 1
 434 -76 l 1xde
581 953 m 1
 429 695 l 1
 341 953 l 1
 286 759 l 1
 233 877 l 1
 141 739 l 1
 64 921 l 1
 8 861 l 1
 8 907 l 1
 74 972 l 1
 157 815 l 1
 238 939 l 1
 284 837 l 1
 332 1055 l 1
 406 898 l 1
 434 829 l 1
 571 1061 l 1
 628 898 l 1
 609 866 l 1
 581 953 l 1
320 695 m 1
 462 581 l 1
 405 521 l 1
 356 571 l 1
 268 576 l 1
 212 465 l 1
 194 340 l 1
 285 190 l 1
 424 200 l 1
 455 317 l 1
 529 287 l 1
 551 273 l 1
 485 158 l 1
 342 132 l 1
 165 205 l 1
 127 342 l 1
 127 571 l 1
 218 658 l 1
 320 695 l 1
327 734 m 1
 199 689 l 1
 92 586 l 1
 92 338 l 1
 136 179 l 1
 338 96 l 1
 507 127 l 1
 598 284 l 1
 546 319 l 1
 431 364 l 1
 396 233 l 1
 304 227 l 1
 231 348 l 1
 246 454 l 1
 289 540 l 1
 340 537 l 1
 406 471 l 1
 514 585 l 1
 327 734 l 1
271 67 m 1
 440 99 l 1
 439 107 l 1
 366 92 l 1
 329 87 l 1
 130 166 l 1
 82 331 l 1
 79 583 l 1
 174 678 l 1
 175 678 l 1
 132 660 l 1
 25 558 l 1
 25 309 l 1
 69 151 l 1
 271 67 l 1
384 251 m 1xee
 406 337 l 1
 360 353 l 1
 338 269 l 1
 334 248 l 1
 384 251 l 1xee
384 487 m 1
 338 532 l 1
 293 534 l 1
 281 510 l 1
 344 447 l 1
 384 487 l 1
EndSplineSet
EndChar

StartChar: D
Encoding: 68 68 37
Width: 564
Flags: W
HStem: 110 21<309 326> 147 39<359 374> 635 52<290 296> 1033 20G<525 525>
VStem: 211 43 211 102<294 440> 333 53<318 365> 344 42<318 357>
LayerCount: 2
Fore
SplineSet
491 -121 m 1xf9
 376 28 l 1
 288 -102 l 1
 174 26 l 1
 88 -81 l 1
 12 -52 l 1
 -13 -68 l 1
 100 -114 l 1
 182 -25 l 1
 288 -156 l 1
 384 -25 l 1
 483 -186 l 1
 568 -61 l 1
 544 -44 l 1
 491 -121 l 1xf9
525 965 m 1
 391 744 l 1
 343 901 l 1
 230 743 l 1
 117 926 l 1
 0 841 l 1
 -9 881 l 1
 125 977 l 1
 242 818 l 1
 343 989 l 1
 402 832 l 1
 525 1053 l 1
 591 867 l 1
 563 857 l 1
 525 965 l 1
169 182 m 1
 102 624 l 1
 290 635 l 1
 434 543 l 1
 504 351 l 1
 359 186 l 1
 169 182 l 1
125 142 m 1
 374 147 l 1
 550 348 l 1
 465 578 l 1
 296 687 l 1
 45 671 l 1
 125 142 l 1
254 345 m 1
 246 510 l 1
 249 528 l 1
 351 475 l 1
 344 357 l 1
 254 345 l 1
211 294 m 1
 386 318 l 1
 383 498 l 1
 216 596 l 1
 201 513 l 1
 211 294 l 1
326 131 m 1
 120 129 l 1
 43 602 l 1
 17 594 l 1
 90 104 l 1
 309 110 l 1
 326 131 l 1
313 362 m 1xf6
 313 440 l 1
 258 477 l 1
 255 509 l 1
 341 466 l 1
 333 365 l 1
 313 362 l 1xf6
EndSplineSet
EndChar

StartChar: E
Encoding: 69 69 38
Width: 493
Flags: W
HStem: -220 20 202 36 216 22 270 38 270 253<357 410> 270 275<264 410> 1031 20G<455 455>
VStem: 88 43<247 247 247 330> 100 31<221 247> 218 31<527 527 527 650> 218 46<545 600 545 650> 227 32 360 29<618 710 710 710> 410 42<238 270 270 270>
LayerCount: 2
Fore
SplineSet
150 -106 m 1xaa9c
 84 -220 l 1
 -13 -68 l 1
 12 -52 l 1
 81 -159 l 1
 138 -35 l 1
 207 -124 l 1
 337 141 l 1
 437 -128 l 1
 490 -51 l 1
 515 -68 l 1
 429 -193 l 1
 339 50 l 1
 205 -185 l 1
 150 -106 l 1xaa9c
343 855 m 1
 238 766 l 1
 127 975 l 1
 15 850 l 1
 -7 870 l 1
 134 1028 l 1
 242 826 l 1
 344 923 l 1
 455 1051 l 1
 521 865 l 1
 493 855 l 1
 455 963 l 1
 343 855 l 1
136 723 m 1
 131 247 l 1
 410 238 l 1
 410 270 l 1
 227 284 l 1
 223 407 l 1
 333 435 l 1
 337 490 l 1
 218 503 l 1xd2ac
 218 650 l 1
 360 618 l 1
 360 710 l 1
 136 723 l 1
452 216 m 1
 100 221 l 1
 104 767 l 1
 389 738 l 1
 389 581 l 1
 246 621 l 1
 249 527 l 1xb29c
 357 523 l 1
 367 421 l 1
 259 389 l 1xcb4c
 259 317 l 1
 452 308 l 1
 452 216 l 1
34 675 m 1
 90 673 l 1
 88 330 l 1
 88 204 l 1
 357 202 l 1xc72c
 361 146 l 1
 29 151 l 1
 34 675 l 1
264 545 m 1
 264 600 l 1
 310 586 l 1
 305 545 l 1
 264 545 l 1
EndSplineSet
EndChar

StartChar: F
Encoding: 70 70 39
Width: 493
Flags: W
HStem: -223 20 159 47<259 268> 179 27 179 182<291 342> 1031 20G<455 455>
VStem: 186 34
LayerCount: 2
Fore
SplineSet
92 -223 m 1xac
 -13 -68 l 1
 12 -52 l 1
 81 -159 l 1
 194 51 l 1
 259 -112 l 1
 340 137 l 1
 441 -132 l 1
 493 -55 l 1
 518 -72 l 1
 433 -197 l 1
 342 46 l 1
 262 -200 l 1
 189 -18 l 1
 92 -223 l 1xac
389 801 m 1
 333 921 l 1
 255 722 l 1
 127 975 l 1
 15 850 l 1
 -7 870 l 1
 134 1028 l 1
 251 784 l 1
 337 988 l 1
 389 872 l 1
 455 1051 l 1
 521 865 l 1
 493 855 l 1
 455 963 l 1
 389 801 l 1
99 650 m 1
 154 197 l 1
 268 206 l 1
 241 288 l 1
 191 426 l 1
 323 439 l 1
 323 499 l 1
 186 467 l 1
 172 600 l 1
 356 627 l 1
 378 705 l 1
 99 650 l 1
342 179 m 1
 118 163 l 1
 61 681 l 1
 423 740 l 1
 396 605 l 1
 206 569 l 1
 213 506 l 1
 341 534 l 1
 358 412 l 1
 231 403 l 1
 259 297 l 1
 342 179 l 1
222 560 m 1
 337 581 l 1
 333 554 l 1
 220 532 l 1
 222 560 l 1
247 395 m 1
 286 395 l 1
 291 361 l 1x9c
 259 360 l 1
 247 395 l 1
105 145 m 1
 259 159 l 1xcc
 268 128 l 1
 72 114 l 1
 17 613 l 1
 49 618 l 1
 105 145 l 1
EndSplineSet
EndChar

StartChar: G
Encoding: 71 71 40
Width: 560
Flags: W
HStem: -220 20 1036 20G<477 477>
VStem: 57 42<167 167 167 496 135 167> 65 34<167 167 167 500> 231 170<257 257> 381 20<206 278 202 295 202 295> 381 27<243 243 243 295>
LayerCount: 2
Fore
SplineSet
433 -189 m 1xd2
 359 -10 l 1
 293 -139 l 1
 175 -60 l 1
 84 -220 l 1
 -13 -68 l 1
 12 -52 l 1
 81 -159 l 1
 175 -18 l 1
 282 -84 l 1
 355 49 l 1
 439 -123 l 1
 560 -47 l 1
 585 -64 l 1
 433 -189 l 1xd2
393 747 m 1
 338 861 l 1
 238 772 l 1
 127 975 l 1
 15 850 l 1
 -7 870 l 1
 134 1028 l 1
 242 832 l 1
 344 923 l 1
 389 821 l 1
 477 1056 l 1
 593 868 l 1
 565 858 l 1
 476 968 l 1
 393 747 l 1
324 291 m 1
 351 296 l 1
 338 204 l 1
 246 154 l 1
 158 213 l 1
 140 360 l 1
 167 508 l 1
 275 640 l 1
 393 553 l 1
 443 586 l 1
 420 627 l 1
 218 728 l 1
 85 495 l 1
 99 167 l 1
 287 108 l 1
 356 142 l 1
 381 206 l 1
 381 295 l 1
 515 317 l 1
 475 406 l 1
 246 352 l 1
 254 283 l 1
 324 291 l 1
65 500 m 1
 204 762 l 1
 446 641 l 1
 467 560 l 1
 380 522 l 1
 278 611 l 1
 190 493 l 1
 163 355 l 1
 181 228 l 1
 245 184 l 1
 314 220 l 1
 324 263 l 1
 236 263 l 1
 225 367 l 1
 489 436 l 1
 543 302 l 1
 401 278 l 1xd4
 401 202 l 1
 372 128 l 1
 282 85 l 1
 65 141 l 1
 65 500 l 1
247 555 m 1
 280 599 l 1
 377 514 l 1
 396 523 l 1
 401 511 l 1
 327 479 l 1
 247 555 l 1
315 257 m 1
 308 230 l 1
 281 218 l 1
 192 228 l 1
 181 305 l 1
 226 316 l 1
 231 257 l 1xe8
 315 257 l 1
408 243 m 1xe2
 409 273 l 1
 464 283 l 1
 474 254 l 1
 408 243 l 1xe2
284 72 m 1
 311 88 l 1
 310 71 l 1
 226 34 l 1
 20 94 l 1
 20 442 l 1
 153 694 l 1
 161 689 l 1
 57 496 l 1
 57 135 l 1
 284 72 l 1
EndSplineSet
EndChar

StartChar: H
Encoding: 72 72 41
Width: 537
Flags: W
HStem: -220 20 252 40<334 354> 259 33<339 354> 1026 20G<499 499>
VStem: 155 55<9 39> 182 44 282 35<343 375> 287 30<343 370>
LayerCount: 2
Fore
SplineSet
81 -159 m 1xb5
 172 -45 l 1
 294 -124 l 1
 345 -2 l 1
 480 -133 l 1
 533 -56 l 1
 558 -73 l 1
 471 -185 l 1
 359 -54 l 1
 302 -201 l 1
 170 -86 l 1
 84 -220 l 1
 -13 -68 l 1
 12 -52 l 1
 81 -159 l 1xb5
247 745 m 1
 127 975 l 1
 15 850 l 1
 -7 870 l 1
 134 1028 l 1
 247 810 l 1
 279 854 l 1
 401 773 l 1
 499 1046 l 1
 564 860 l 1
 536 850 l 1
 490 950 l 1
 411 718 l 1
 285 799 l 1
 247 745 l 1
196 618 m 1
 88 142 l 1
 182 96 l 1
 186 278 l 1
 354 292 l 1
 410 91 l 1
 457 82 l 1
 378 646 l 1
 345 651 l 1
 317 343 l 1
 182 320 l 1
 233 632 l 1
 177 674 l 1
 196 618 l 1
210 39 m 1xda
 65 119 l 1
 163 626 l 1
 130 731 l 1
 262 645 l 1
 213 356 l 1
 287 370 l 1
 315 678 l 1
 396 684 l 1
 487 54 l 1
 385 54 l 1
 339 259 l 1
 219 251 l 1
 210 39 l 1xda
307 624 m 1
 282 375 l 1
 255 370 l 1
 278 623 l 1
 307 624 l 1
381 49 m 1
 423 49 l 1
 429 18 l 1
 347 18 l 1
 301 224 l 1
 226 219 l 1
 226 246 l 1xd6
 334 252 l 1
 381 49 l 1
147 624 m 1
 50 105 l 1
 157 57 l 1
 155 9 l 1xda
 12 76 l 1
 99 601 l 1
 62 697 l 1
 122 679 l 1
 147 624 l 1
EndSplineSet
EndChar

StartChar: I
Encoding: 73 73 42
Width: 585
Flags: W
HStem: -220 20 142 70<50 60 60 60> 195 17 195 27 513 203 521 195 695 21G 1036 20G<528 528>
VStem: 239 27<375 381> 246 20<375 510> 535 23
LayerCount: 2
Fore
SplineSet
610 -64 m 1xa360
 506 -194 l 1
 338 -19 l 1
 271 -136 l 1
 181 -37 l 1
 84 -220 l 1
 -13 -68 l 1
 12 -52 l 1
 81 -159 l 1
 174 26 l 1
 265 -85 l 1
 343 51 l 1
 512 -128 l 1
 586 -47 l 1
 610 -64 l 1xa360
406 751 m 1
 292 882 l 1
 232 730 l 1
 130 952 l 1
 15 850 l 1
 -7 870 l 1
 134 1028 l 1
 230 808 l 1
 292 962 l 1
 401 805 l 1
 528 1056 l 1
 610 868 l 1
 582 858 l 1
 527 968 l 1
 406 751 l 1
158 659 m 1
 135 553 l 1
 193 541 l 1
 273 535 l 1
 266 375 l 1
 236 195 l 1
 94 186 l 1
 91 139 l 1
 103 89 l 1
 292 154 l 1
 452 167 l 1
 420 255 l 1
 296 232 l 1
 342 424 l 1
 370 544 l 1
 535 526 l 1
 543 695 l 1
 158 659 l 1
190 521 m 1xc5a0
 97 527 l 1
 128 683 l 1
 564 716 l 1
 558 497 l 1
 382 516 l 1
 361 419 l 1
 324 266 l 1
 431 291 l 1
 495 148 l 1
 294 123 l 1
 77 55 l 1
 72 136 l 1
 50 212 l 1
 211 212 l 1
 246 377 l 1
 246 510 l 1
 190 521 l 1xc5a0
405 505 m 1
 487 496 l 1
 504 496 l 1
 498 449 l 1
 381 463 l 1
 405 505 l 1
13 142 m 1
 60 142 l 1
 62 125 l 1
 69 47 l 1
 296 113 l 1
 414 132 l 1
 430 96 l 1
 242 73 l 1
 36 9 l 1
 31 78 l 1
 13 142 l 1
206 222 m 1x99a0
 185 222 l 1
 205 316 l 1
 205 458 l 1
 141 472 l 1
 59 476 l 1
 86 614 l 1
 108 615 l 1
 89 514 l 1
 188 513 l 1
 237 502 l 1
 239 381 l 1
 206 222 l 1x99a0
EndSplineSet
EndChar

StartChar: J
Encoding: 74 74 43
Width: 609
Flags: W
HStem: -220 20 56 41<338 368> 67 30<368 393> 562 51 573 28<517 518 518 547 517 517> 576 37 700 38<526 555> 1027 20G<531 531>
VStem: 404 35<248 248> 406 33<243 457> 406 42
LayerCount: 2
Fore
SplineSet
12 -52 m 1xa780
 89 -159 l 1
 149 -16 l 1
 232 -104 l 1
 331 -157 l 1
 420 34 l 1
 513 -133 l 1
 607 -50 l 1
 632 -67 l 1
 505 -198 l 1
 416 -35 l 1
 335 -201 l 1
 232 -150 l 1
 163 -76 l 1
 84 -220 l 1
 -13 -68 l 1
 12 -52 l 1xa780
131 953 m 1
 15 850 l 1
 -7 870 l 1
 134 1028 l 1
 227 815 l 1
 312 854 l 1
 420 788 l 1
 531 1047 l 1
 641 861 l 1
 613 851 l 1
 531 959 l 1
 425 747 l 1
 318 799 l 1
 204 765 l 1
 131 953 l 1
143 701 m 1
 168 597 l 1
 368 613 l 1
 323 275 l 1
 293 156 l 1
 239 156 l 1
 210 293 l 1
 101 243 l 1
 181 102 l 1
 368 97 l 1
 404 248 l 1
 406 457 l 1xcb40
 402 601 l 1
 518 601 l 1
 547 601 l 1
 526 700 l 1
 318 693 l 1
 143 701 l 1
328 576 m 1
 142 568 l 1
 94 728 l 1
 311 718 l 1
 555 738 l 1
 585 573 l 1
 517 573 l 1
 439 576 l 1xa740
 439 457 l 1
 439 243 l 1
 393 67 l 1
 163 77 l 1
 51 257 l 1
 222 340 l 1
 256 183 l 1
 269 182 l 1
 289 281 l 1
 328 576 l 1
23 178 m 1
 78 203 l 1
 155 69 l 1
 338 56 l 1xd320
 326 12 l 1
 119 22 l 1
 23 178 l 1
111 635 m 1
 132 558 l 1
 316 562 l 1
 266 199 l 1
 256 227 l 1
 294 523 l 1
 101 513 l 1
 64 637 l 1
 111 635 l 1
448 519 m 1
 446 566 l 1
 501 569 l 1
 510 518 l 1
 448 519 l 1
EndSplineSet
EndChar

StartChar: K
Encoding: 75 75 44
Width: 493
Flags: W
HStem: -210 20 144 37 148 33 1035 20G<457 457>
VStem: 295 35 302 28
LayerCount: 2
Fore
SplineSet
71 -152 m 1xb4
 115 -77 l 1
 192 59 l 1
 257 -105 l 1
 338 53 l 1
 438 -125 l 1
 491 -48 l 1
 516 -65 l 1
 430 -190 l 1
 338 -5 l 1
 260 -193 l 1
 187 -10 l 1
 120 -128 l 1
 79 -210 l 1
 -13 -68 l 1
 12 -52 l 1
 71 -152 l 1xb4
121 956 m 1
 15 850 l 1
 -7 870 l 1
 134 1028 l 1
 205 830 l 1
 259 926 l 1
 343 805 l 1
 457 1055 l 1
 522 869 l 1
 494 859 l 1
 456 967 l 1
 347 768 l 1
 251 851 l 1
 196 768 l 1
 121 956 l 1
192 687 m 1
 115 154 l 1
 153 167 l 1
 214 390 l 1
 317 354 l 1
 330 188 l 1
 420 181 l 1
 376 352 l 1
 280 418 l 1
 432 598 l 1
 407 677 l 1
 228 441 l 1
 283 704 l 1
 192 687 l 1
177 143 m 1
 78 110 l 1
 166 713 l 1
 322 742 l 1
 285 566 l 1
 418 742 l 1
 466 592 l 1
 325 424 l 1
 403 370 l 1
 460 148 l 1
 302 159 l 1
 288 332 l 1
 235 351 l 1
 177 143 l 1
229 274 m 1
 243 335 l 1
 252 332 261 330 278 323 c 1
 295 146 l 1
 353 144 l 1xd8
 367 96 l 1
 243 105 l 1
 229 274 l 1
144 638 m 1
 69 101 l 1
 96 108 l 1
 92 86 l 1
 23 64 l 1
 106 632 l 1
 144 638 l 1
EndSplineSet
EndChar

StartChar: L
Encoding: 76 76 45
Width: 519
Flags: W
HStem: -220 20 264 44<443 480> 755 41<298 329> 1027 20G<416 416>
VStem: 78 50 87 41 116 12 443 37<175 264 175 175>
LayerCount: 2
Fore
SplineSet
297 -48 m 1xf9
 379 -167 l 1
 515 -39 l 1
 540 -56 l 1
 355 -208 l 2
 355 -207 330 -155 293 -106 c 1
 219 -180 l 1
 128 -60 l 1
 84 -220 l 1
 -13 -68 l 1
 12 -52 l 1
 81 -159 l 1
 112 -3 l 1
 223 -143 l 1
 297 -48 l 1xf9
202 894 m 1
 264 981 l 1
 350 898 l 1
 416 1047 l 1
 548 878 l 1
 520 868 l 1
 420 997 l 1
 367 853 l 1
 276 927 l 1
 194 845 l 1
 113 981 l 1
 1 857 l 1
 -21 877 l 1
 121 1035 l 1
 202 894 l 1
128 139 m 1
 173 760 l 1
 298 755 l 1
 315 671 l 1
 198 338 l 1
 239 252 l 1
 443 264 l 1
 443 175 l 1
 128 139 l 1
87 91 m 1xf5
 480 137 l 1
 480 308 l 1
 261 296 l 1
 240 341 l 1
 355 668 l 1
 329 796 l 1
 138 803 l 1
 87 91 l 1xf5
60 687 m 1
 123 686 l 1
 116 615 l 1xf3
 87 243 l 1xf5
 78 80 l 1xf9
 367 111 l 1
 366 62 l 1
 13 21 l 1
 60 687 l 1
EndSplineSet
EndChar

StartChar: M
Encoding: 77 77 46
Width: 520
Flags: W
HStem: -210 20 1033 20G<469 469>
VStem: 81 29 114 33 185 32<173 197> 185 190<138 197> 379 29 379 51<111 146> 479 31<188 209>
LayerCount: 2
Fore
SplineSet
89 -210 m 1xf680
 -13 -68 l 1
 12 -52 l 1
 89 -152 l 1
 216 56 l 1
 282 -108 l 1
 356 16 l 1
 463 -128 l 1
 516 -51 l 1
 540 -68 l 1
 455 -193 l 1
 361 -47 l 1
 284 -196 l 1
 212 -13 l 1
 89 -210 l 1xf680
122 970 m 1
 3 852 l 1
 -19 872 l 1
 156 1049 l 1
 147 899 l 1
 252 1012 l 1
 340 848 l 1
 373 899 l 1
 469 1053 l 1
 551 870 l 1
 523 860 l 1
 469 965 l 1
 344 786 l 1
 289 836 l 1
 243 945 l 1
 114 848 l 1
 122 970 l 1
81 143 m 1
 66 700 l 1
 191 735 l 1
 279 516 l 1
 321 721 l 1
 486 743 l 1
 510 188 l 1
 379 146 l 1
 375 456 l 1
 336 370 l 1
 248 335 l 1
 195 451 l 1
 217 173 l 1xfa80
 81 143 l 1
173 699 m 1
 97 678 l 1
 110 180 l 1
 185 197 l 1
 152 616 l 1
 263 374 l 1
 313 394 l 1
 403 592 l 1
 408 187 l 1
 479 209 l 1
 457 709 l 1
 346 694 l 1
 288 413 l 1
 173 699 l 1
297 625 m 1
 277 532 l 1
 260 571 l 1
 269 620 l 1
 297 625 l 1
66 129 m 1
 132 143 l 1
 137 98 l 1
 31 75 l 1
 17 602 l 1
 57 615 l 1
 66 129 l 1
244 329 m 1
 282 344 l 1
 260 295 l 1
 216 278 l 1
 206 405 l 1
 244 329 l 1
371 433 m 1
 375 138 l 1xf580
 428 157 l 1
 430 111 l 1
 329 79 l 1
 326 354 l 1
 342 365 l 1
 371 433 l 1
EndSplineSet
EndChar

StartChar: N
Encoding: 78 78 47
Width: 469
Flags: W
HStem: -220 20 1041 20G<417 417>
VStem: 47 20 83 28 170 30<156 169>
LayerCount: 2
Fore
SplineSet
12 -52 m 1
 76 -152 l 1
 160 12 l 1
 229 -100 l 1
 310 58 l 1
 410 -120 l 1
 463 -43 l 1
 488 -60 l 1
 402 -185 l 1
 315 -5 l 1
 232 -188 l 1
 160 -51 l 1
 84 -220 l 1
 -13 -68 l 1
 12 -52 l 1
164 811 m 1
 122 978 l 1
 3 852 l 1
 -19 872 l 1
 130 1028 l 1
 172 873 l 1
 248 974 l 1
 289 769 l 1
 417 1061 l 1
 498 878 l 1
 470 868 l 1
 416 973 l 1
 285 685 l 1
 235 899 l 1
 164 811 l 1
57 666 m 1
 83 55 l 1
 200 156 l 1
 192 343 l 1
 258 128 l 1
 369 154 l 1
 465 687 l 1
 336 730 l 1
 285 429 l 1
 180 784 l 1
 57 666 l 1
87 654 m 1
 165 728 l 1
 293 297 l 1
 360 691 l 1
 431 667 l 1
 343 179 l 1
 279 163 l 1
 152 575 l 1
 170 169 l 1
 111 118 l 1
 87 654 l 1
77 45 m 1
 67 88 l 1
 51 627 l 1
 22 593 l 1
 47 20 l 1
 77 45 l 1
310 128 m 1
 244 114 l 1
 203 275 l 1
 218 79 l 1
 306 99 l 1
 310 128 l 1
282 468 m 1
 314 635 l 1
 298 643 l 1
 275 495 l 1
 282 468 l 1
EndSplineSet
EndChar

StartChar: O
Encoding: 79 79 48
Width: 553
Flags: W
HStem: -220 20 95 35 99 31<411 434> 566 33<346 370> 1033 20G<507 507>
VStem: 298 47 361 30<335 503 503 503>
LayerCount: 2
Fore
SplineSet
298 -135 m 1xbe
 180 -41 l 1
 84 -220 l 1
 -13 -68 l 1
 12 -52 l 1
 81 -159 l 1
 174 0 l 1
 282 -84 l 1
 365 -30 l 1
 411 3 l 1
 500 -128 l 1
 553 -51 l 1
 578 -68 l 1
 492 -193 l 1
 402 -51 l 1
 298 -135 l 1xbe
340 794 m 1
 327 862 l 1
 231 760 l 1
 115 976 l 1
 3 852 l 1
 -19 872 l 1
 123 1030 l 1
 231 807 l 1
 332 924 l 1
 369 832 l 1
 415 840 l 1
 507 1053 l 1
 588 870 l 1
 560 860 l 1
 506 965 l 1
 432 811 l 1
 340 794 l 1
174 703 m 1
 122 236 l 1
 244 139 l 1
 411 130 l 1
 480 404 l 1
 432 674 l 1
 174 703 l 1
233 109 m 1
 90 223 l 1
 148 737 l 1
 458 702 l 1
 511 403 l 1
 434 99 l 1
 233 109 l 1
270 559 m 1
 219 301 l 1
 303 246 l 1
 361 335 l 1
 361 503 l 1
 346 566 l 1
 270 559 l 1
312 204 m 1
 185 286 l 1
 245 587 l 1
 370 599 l 1
 391 506 l 1
 391 326 l 1
 312 204 l 1
229 99 m 1
 354 95 l 1xde
 334 23 l 1
 151 32 l 1
 18 137 l 1
 73 628 l 1
 125 620 l 1
 77 210 l 1
 229 99 l 1
274 537 m 1xbe
 330 548 l 1
 347 497 l 1
 345 338 l 1
 298 266 l 1
 288 413 l 1
 274 537 l 1xbe
EndSplineSet
EndChar

StartChar: P
Encoding: 80 80 49
Width: 486
Flags: W
HStem: -220 20 1034 20G<433 433>
VStem: 69 32 82 30<314 315> 163 28<118 143> 171 37
LayerCount: 2
Fore
SplineSet
81 -159 m 1xd4
 181 24 l 1
 245 -107 l 1
 326 143 l 1
 426 -127 l 1
 479 -50 l 1
 504 -67 l 1
 418 -192 l 1
 328 52 l 1
 248 -195 l 1
 181 -34 l 1
 84 -220 l 1
 -13 -68 l 1
 12 -52 l 1
 81 -159 l 1xd4
156 794 m 1
 115 976 l 1
 3 852 l 1
 -19 872 l 1
 123 1030 l 1
 185 853 l 1
 289 965 l 1
 344 802 l 1
 433 1054 l 1
 514 871 l 1
 486 861 l 1
 432 966 l 1
 344 723 l 1
 264 873 l 1
 156 794 l 1
104 617 m 1
 112 314 l 1
 101 129 l 1xe8
 163 143 l 1
 175 327 l 1
 328 353 l 1
 403 452 l 1
 365 621 l 1
 236 659 l 1
 104 617 l 1
69 90 m 1xd8
 82 315 l 1
 74 639 l 1
 235 690 l 1
 390 644 l 1
 436 445 l 1
 344 326 l 1
 204 302 l 1
 191 118 l 1
 69 90 l 1xd8
196 551 m 1
 200 423 l 1
 289 451 l 1
 299 528 l 1
 267 577 l 1
 196 551 l 1
316 429 m 1
 171 382 l 1
 166 572 l 1
 279 613 l 1
 331 536 l 1
 316 429 l 1
68 192 m 1
 64 80 l 1xe4
 134 95 l 1
 131 59 l 1
 39 38 l 1
 51 243 l 1
 35 554 l 1
 68 564 l 1
 68 192 l 1
209 252 m 1
 211 292 l 1
 322 311 l 1
 290 269 l 1
 209 252 l 1
204 513 m 1
 227 524 l 1
 269 461 l 1
 262 449 l 1
 208 432 l 1
 204 513 l 1
EndSplineSet
EndChar

StartChar: Q
Encoding: 81 81 50
Width: 604
Flags: HWO
HStem: -220 20 142 28<363 379> 1021 20G<449 449>
VStem: 347 30<346 469 346 346> 471 30<317 489 317 317>
LayerCount: 2
Fore
SplineSet
407 50 m 1
 544 -133 l 1
 607 -36 l 1
 631 -78 l 1
 540 -188 l 1
 407 -12 l 1
 293 -139 l 1
 182 -25 l 1
 84 -220 l 1
 -13 -63 l 1
 12 -48 l 1
 81 -159 l 1
 174 26 l 1
 282 -84 l 1
 407 50 l 1
378 823 m 1
 489 1041 l 1
 627 880 l 1
 603 847 l 1
 493 969 l 1
 379 745 l 1
 327 862 l 1
 229 835 l 1
 115 976 l 1
 0 852 l 1
 -19 872 l 1
 123 1030 l 1
 229 876 l 1
 332 924 l 1
 378 823 l 1
422 286 m 1
 486 356 l 1
 453 589 l 1
 375 663 l 1
 277 743 l 1
 151 674 l 1
 138 579 l 1
 84 399 l 1
 128 261 l 1
 214 178 l 1
 271 162 l 1
 366 228 l 1
 456 112 l 1
 495 165 l 1
 422 286 l 1
370 184 m 1
 269 131 l 1
 198 152 l 1
 101 253 l 1
 53 399 l 1
 109 585 l 1
 123 693 l 1
 281 779 l 1
 395 685 l 1
 481 604 l 1
 520 358 l 1
 450 278 l 1
 532 166 l 1
 452 76 l 1
 370 184 l 1
392 362 m 1
 347 469 l 1
 309 552 l 1
 261 568 l 1
 224 460 l 1
 170 395 l 1
 222 335 l 1
 270 260 l 1
 392 362 l 1
306 238 m 1
 238 218 l 1
 199 316 l 1
 131 394 l 1
 197 475 l 1
 242 606 l 1
 331 576 l 1
 377 475 l 1
 436 354 l 1
 306 238 l 1
105 624 m 1
 32 385 l 1
 91 238 l 1
 170 140 l 1
 284 112 l 1
 364 162 l 1
 412 92 l 1
 384 81 l 1
 364 104 l 1
 320 76 l 1
 132 105 l 1
 41 202 l 1
 -5 339 l 1
 50 523 l 1
 64 624 l 1
 105 624 l 1
282 294 m 1
 250 324 l 1
 336 390 l 1
 254 480 l 1
 292 534 l 1
 372 370 l 1
 282 294 l 1
EndSplineSet
EndChar

StartChar: R
Encoding: 82 82 51
Width: 461
Flags: W
HStem: -227 20 48 20<302 370> 61 38<172 172> 69 30<132 208 132 239 104 208> 86 19<384 399> 341 37<314 322> 348 30<314 325> 1016 20G<407 407>
VStem: 75 30<501 654 501 669 501 669> 104 28 191 28 208 31<69 246> 208 94<68 246> 308 19 386 32<421 434>
LayerCount: 2
Fore
SplineSet
126 -227 m 1xa5a6
 18 -69 l 1
 43 -53 l 1
 110 -160 l 1
 114 -80 l 1
 156 -5 l 1
 219 -124 l 1
 306 9 l 1
 400 -145 l 1
 453 -68 l 1
 478 -85 l 1
 392 -209 l 1
 306 -30 l 1
 222 -212 l 1
 151 -64 l 1
 126 -227 l 1xa5a6
118 961 m 1
 3 852 l 1
 -19 872 l 1
 123 1030 l 1
 197 869 l 1
 239 924 l 1xcb96
 306 802 l 1
 407 1036 l 1
 488 853 l 1
 460 843 l 1
 406 948 l 1
 306 740 l 1
 231 857 l 1
 185 811 l 1
 118 961 l 1
208 246 m 1
 226 282 l 1
 324 241 l 1
 327 102 l 1
 384 105 l 1
 349 268 l 1
 213 325 l 1
 194 373 l 1
 314 378 l 1
 386 434 l 1
 374 558 l 1
 300 632 l 1
 258 675 l 1
 150 687 l 1
 105 654 l 1
 105 501 l 1
 132 99 l 1xa556
 208 99 l 1
 208 246 l 1
233 259 m 1
 229 239 l 1
 239 69 l 1xcba6
 104 69 l 1
 75 500 l 1xd556
 75 669 l 1
 141 718 l 1
 272 703 l 1
 321 654 l 1
 403 572 l 1
 418 421 l 1
 325 348 l 1
 225 344 l 1
 368 282 l 1
 399 86 l 1
 308 79 l 1
 304 234 l 1
 233 259 l 1
207 588 m 1
 219 450 l 1
 275 443 l 1
 315 509 l 1
 290 545 l 1
 233 591 l 1
 207 588 l 1
291 411 m 1
 191 423 l 1
 175 615 l 1
 242 622 l 1
 312 566 l 1
 351 511 l 1
 291 411 l 1
98 59 m 1
 172 61 l 1xa5a6
 174 27 l 1
 68 27 l 1
 41 445 l 1
 41 605 l 1
 70 628 l 1
 70 472 l 1
 98 59 l 1
297 321 m 1
 264 338 l 1
 322 341 l 1
 313 321 l 1
 297 321 l 1
227 514 m 1
 223 578 l 1
 285 538 l 1
 296 511 l 1
 277 456 l 1
 260 497 l 1
 227 514 l 1
302 68 m 1
 368 68 l 1xd58e
 370 48 l 1
 283 43 l 1
 267 186 l 1
 240 207 l 1
 245 241 l 1
 290 225 l 1
 302 68 l 1
EndSplineSet
EndChar

StartChar: S
Encoding: 83 83 52
Width: 513
Flags: W
HStem: -220 20 205 101<82 92 92 92> 243 29<327 346> 276 30<118 181 181 181> 276 39<118 142 73 181> 326 30<163 256 163 259 163 259> 687 30<366 382> 1041 20G<442 442>
VStem: 430 29<181 202>
LayerCount: 2
Fore
SplineSet
357 50 m 1xaf80
 436 -120 l 1
 516 -43 l 1
 541 -60 l 1
 421 -182 l 1
 357 -9 l 1
 270 -161 l 1
 169 -55 l 1
 84 -220 l 1
 -13 -68 l 1
 12 -52 l 1
 81 -159 l 1
 165 -18 l 1
 256 -87 l 1
 357 50 l 1xaf80
375 839 m 1
 442 1061 l 1
 546 881 l 1
 518 871 l 1
 448 948 l 1
 385 766 l 1
 327 862 l 1
 192 802 l 1
 115 976 l 1
 3 852 l 1
 -19 872 l 1
 123 1030 l 1
 206 853 l 1
 332 924 l 1
 375 839 l 1
444 558 m 1
 357 507 l 1
 350 572 l 1
 221 614 l 1
 187 437 l 1
 260 395 l 1
 343 416 l 1
 441 369 l 1
 430 202 l 1
 247 133 l 1
 130 213 l 1
 118 276 l 1
 181 276 l 1
 227 234 l 1
 346 243 l 1
 392 326 l 1
 350 374 l 1
 256 356 l 1
 163 356 l 1
 99 491 l 1
 172 679 l 1
 366 687 l 1
 444 558 l 1
486 547 m 1
 382 717 l 1
 152 708 l 1
 67 490 l 1
 144 326 l 1
 259 326 l 1
 339 341 l 1
 356 322 l 1
 327 272 l 1
 238 265 l 1
 193 306 l 1
 82 306 l 1xb780
 103 195 l 1
 243 100 l 1
 459 181 l 1
 473 387 l 1
 346 448 l 1
 264 427 l 1
 220 452 l 1
 244 575 l 1
 323 550 l 1
 335 473 l 1
 486 547 l 1
195 118 m 1
 238 89 l 1
 370 142 l 1
 369 105 l 1
 169 30 l 1
 41 117 l 1
 24 205 l 1
 92 205 l 1xc780
 97 189 l 1
 195 118 l 1
107 607 m 1
 57 487 l 1
 121 348 l 1
 142 315 l 1
 73 315 l 1xaf80
 78 254 l 1
 7 404 l 1
 86 607 l 1
 107 607 l 1
324 466 m 1
 388 492 l 1
 390 466 l 1
 296 440 l 1
 261 474 l 1
 248 558 l 1
 276 553 l 1
 313 540 l 1
 324 466 l 1
EndSplineSet
EndChar

StartChar: T
Encoding: 84 84 53
Width: 577
Flags: W
HStem: -220 20 105 47<320 320> 122 30<272 374 272 404> 500 213<499 551> 681 32<521 551> 1044 20G<515 515>
VStem: 68 47 86 29 241 31<122 152> 374 30<152 529 122 562> 374 52<445 504 445 562> 517 29
LayerCount: 2
Fore
SplineSet
12 -52 m 1xadd0
 82 -151 l 1
 192 -9 l 1
 328 -97 l 1
 417 55 l 1
 509 -117 l 1
 575 -43 l 1
 600 -60 l 1
 501 -182 l 1
 412 0 l 1
 330 -185 l 1
 201 -64 l 1
 84 -220 l 1
 -13 -68 l 1
 12 -52 l 1xadd0
114 968 m 1
 3 852 l 1
 -19 872 l 1
 123 1030 l 1
 270 807 l 1
 394 894 l 1
 515 1064 l 1
 597 881 l 1
 569 871 l 1
 515 976 l 1
 412 844 l 1
 256 757 l 1
 114 968 l 1
115 536 m 1
 290 568 l 1
 272 152 l 1
 374 152 l 1
 374 562 l 1
 517 548 l 1
 521 681 l 1
 111 660 l 1
 115 536 l 1
241 122 m 1
 259 532 l 1
 86 500 l 1xb5d0
 80 688 l 1
 551 713 l 1
 546 515 l 1
 404 529 l 1
 404 122 l 1
 241 122 l 1
426 445 m 1xd6b0
 426 504 l 1
 499 500 l 1
 426 445 l 1xd6b0
247 509 m 1
 224 101 l 1
 320 105 l 1
 320 64 l 1
 187 64 l 1
 206 477 l 1
 32 445 l 1
 27 601 l 1
 73 605 l 1
 68 486 l 1
 247 509 l 1
EndSplineSet
EndChar

StartChar: U
Encoding: 85 85 54
Width: 507
Flags: W
HStem: -220 20 1030 20G
VStem: 70 44<159 190> 82 32<168 190> 86 28 129 29<673 675> 225 30<498 502> 225 56 309 143<375 375> 422 30<337 634 634 634>
LayerCount: 2
Fore
SplineSet
80 -160 m 1xcd40
 176 -5 l 1
 270 -111 l 1
 348 53 l 1
 451 -131 l 1
 504 -54 l 1
 529 -71 l 1
 443 -196 l 1
 352 -5 l 1
 277 -177 l 1
 181 -51 l 1
 84 -220 l 1
 -13 -68 l 1
 12 -52 l 1
 80 -160 l 1xcd40
193 790 m 1
 114 974 l 1
 3 852 l 1
 -19 872 l 1
 123 1030 l 1
 202 844 l 1
 281 953 l 1
 352 786 l 1
 458 1050 l 1
 539 867 l 1
 511 857 l 1
 457 962 l 1
 348 731 l 1
 269 873 l 1
 193 790 l 1
158 673 m 1
 114 190 l 1
 227 158 l 1
 388 175 l 1
 422 337 l 1
 422 634 l 1
 326 648 l 1
 356 370 l 1
 321 257 l 1
 220 189 l 1
 178 278 l 1
 225 502 l 1
 234 659 l 1
 161 728 l 1
 158 673 l 1
225 127 m 1
 82 168 l 1xd640
 129 675 l 1
 135 795 l 1
 264 671 l 1
 255 498 l 1
 210 282 l 1
 232 234 l 1
 296 276 l 1
 325 373 l 1
 292 683 l 1
 452 660 l 1
 452 334 l 1
 413 147 l 1
 225 127 l 1
293 579 m 1
 309 375 l 1
 281 288 l 1xe580
 267 584 l 1
 293 579 l 1
146 134 m 1
 201 116 l 1
 336 132 l 1
 332 88 l 1
 157 69 l 1
 29 106 l 1
 75 601 l 1
 79 688 l 1
 118 648 l 1
 86 322 l 1xce40
 70 159 l 1
 111 146 l 1
 146 134 l 1
EndSplineSet
EndChar

StartChar: V
Encoding: 86 86 55
Width: 646
Flags: W
HStem: -220 20 1033 20G<600 600>
VStem: 251 30<540 544>
LayerCount: 2
Fore
SplineSet
81 -159 m 1
 181 17 l 1
 269 -81 l 1
 347 55 l 1
 412 -108 l 1
 493 141 l 1
 593 -128 l 1
 646 -51 l 1
 671 -68 l 1
 585 -193 l 1
 495 50 l 1
 415 -196 l 1
 342 -14 l 1
 275 -131 l 1
 182 -25 l 1
 84 -220 l 1
 -13 -68 l 1
 12 -52 l 1
 81 -159 l 1
114 949 m 1
 3 852 l 1
 -19 872 l 1
 123 1030 l 1
 206 862 l 1
 293 1023 l 1
 348 821 l 1
 412 954 l 1
 486 775 l 1
 600 1053 l 1
 681 870 l 1
 653 860 l 1
 599 965 l 1
 495 738 l 1
 412 857 l 1
 330 747 l 1
 268 882 l 1
 197 779 l 1
 114 949 l 1
148 609 m 1
 309 157 l 1
 367 150 l 1
 573 610 l 1
 507 656 l 1
 347 266 l 1
 251 540 l 1
 259 653 l 1
 133 725 l 1
 148 609 l 1
385 117 m 1
 287 129 l 1
 118 602 l 1
 96 780 l 1
 291 669 l 1
 281 544 l 1
 349 350 l 1
 493 702 l 1
 610 620 l 1
 385 117 l 1
50 527 m 1
 32 674 l 1
 91 633 l 1
 105 569 l 1
 256 170 l 1
 279 110 l 1
 330 96 l 1
 293 55 l 1
 215 64 l 1
 50 527 l 1
EndSplineSet
EndChar

StartChar: W
Encoding: 87 87 56
Width: 637
Flags: W
HStem: -220 20 145 36<414 458 458 458> 151 30<414 488 414 514 414 514> 656 30<433 518 518 518> 1051 20G<584 584>
VStem: 391 31 397 25
LayerCount: 2
Fore
SplineSet
84 -220 m 1xda
 180 -16 l 1
 269 -147 l 1
 327 -22 l 1
 410 -179 l 1
 490 16 l 1
 580 -176 l 1
 666 -51 l 1
 641 -34 l 1
 588 -111 l 1
 490 66 l 1
 407 -91 l 1
 327 28 l 1
 263 -97 l 1
 174 26 l 1
 81 -159 l 1
 12 -52 l 1
 -13 -68 l 1
 84 -220 l 1xda
-19 872 m 1
 106 1038 l 1
 202 825 l 1
 260 937 l 1
 336 799 l 1
 423 1020 l 1
 478 819 l 1
 584 1071 l 1
 665 888 l 1
 637 878 l 1
 583 983 l 1
 469 748 l 1
 415 924 l 1
 334 727 l 1
 260 857 l 1
 203 748 l 1
 101 974 l 1
 3 852 l 1
 -19 872 l 1
180 209 m 1
 108 613 l 1
 102 666 l 1
 202 628 l 1
 235 405 l 1
 279 524 l 1
 356 486 l 1
 422 288 l 1
 433 656 l 1
 518 656 l 1
 550 568 l 1
 488 181 l 1
 414 181 l 1
 309 414 l 1
 252 182 l 1
 180 209 l 1
153 187 m 1
 273 142 l 1
 317 322 l 1
 395 151 l 1
 514 151 l 1xbc
 581 571 l 1
 539 686 l 1
 404 686 l 1
 397 457 l 1
 380 507 l 1
 256 569 l 1
 242 481 l 1
 231 649 l 1
 66 712 l 1
 78 609 l 1
 153 187 l 1
78 584 m 1
 142 183 l 1
 229 150 l 1
 211 73 l 1
 115 110 l 1
 41 523 l 1
 32 601 l 1
 78 584 l 1
361 593 m 1
 394 605 l 1
 391 491 l 1
 361 593 l 1
296 204 m 1
 319 292 l 1
 390 145 l 1
 458 145 l 1xdc
 449 78 l 1
 353 78 l 1
 296 204 l 1
EndSplineSet
EndChar

StartChar: X
Encoding: 88 88 57
Width: 561
Flags: W
HStem: -235 20 1029 20G<515 515>
LayerCount: 2
Fore
SplineSet
81 -159 m 1
 180 -80 l 1
 258 56 l 1
 323 -108 l 1
 402 41 l 1
 504 -128 l 1
 561 -55 l 1
 582 -68 l 1
 496 -193 l 1
 402 -26 l 1
 326 -196 l 1
 253 -13 l 1
 186 -131 l 1
 84 -235 l 1
 -13 -68 l 1
 12 -52 l 1
 81 -159 l 1
118 974 m 1
 3 852 l 1
 -19 872 l 1
 123 1030 l 1
 183 958 l 1
 257 779 l 1
 296 856 l 1
 394 802 l 1
 515 1049 l 1
 597 866 l 1
 568 856 l 1
 514 961 l 1
 415 760 l 1
 302 801 l 1
 254 706 l 1
 183 878 l 1
 118 974 l 1
96 624 m 1
 241 419 l 1
 124 127 l 1
 193 94 l 1
 291 343 l 1
 467 138 l 1
 511 221 l 1
 354 400 l 1
 430 660 l 1
 358 683 l 1
 284 414 l 1
 136 686 l 1
 96 624 l 1
86 112 m 1
 207 415 l 1
 59 623 l 1
 135 727 l 1
 275 494 l 1
 338 721 l 1
 467 679 l 1
 388 407 l 1
 545 217 l 1
 458 101 l 1
 310 296 l 1
 209 53 l 1
 86 112 l 1
156 460 m 1
 193 412 l 1
 71 104 l 1
 151 70 l 1
 132 23 l 1
 36 69 l 1
 155 367 l 1
 9 573 l 1
 44 620 l 1
 156 460 l 1
305 639 m 1
 273 522 l 1
 255 561 l 1
 279 651 l 1
 305 639 l 1
294 212 m 1
 317 270 l 1
 450 95 l 1
 394 69 l 1
 294 212 l 1
EndSplineSet
EndChar

StartChar: Y
Encoding: 89 89 58
Width: 568
Flags: W
HStem: -220 20 9 37<351 351 351 370 351 370> 1049 20G<523 523>
VStem: 131 69<9 37> 226 30
LayerCount: 2
Fore
SplineSet
12 -52 m 1
 82 -147 l 1
 114 -83 l 1
 256 -14 l 1
 338 -114 l 1
 435 -5 l 1
 444 -17 498 -90 520 -135 c 1
 572 -58 l 1
 597 -75 l 1
 512 -199 l 1
 431 -64 l 1
 341 -202 l 1
 256 -64 l 1
 146 -101 l 1
 84 -220 l 1
 -13 -68 l 1
 12 -52 l 1
178 857 m 1
 115 976 l 1
 3 852 l 1
 -19 872 l 1
 136 1034 l 1
 192 903 l 1
 293 974 l 1
 330 853 l 1
 421 931 l 1
 472 862 l 1
 523 1069 l 1
 596 886 l 1
 568 876 l 1
 514 968 l 1
 486 779 l 1
 412 876 l 1
 320 775 l 1
 279 922 l 1
 178 857 l 1
261 464 m 1
 86 648 l 1
 141 734 l 1
 313 488 l 1
 401 679 l 1
 483 656 l 1
 317 407 l 1
 353 96 l 1
 256 85 l 1
 261 464 l 1
231 453 m 1
 226 52 l 1
 386 69 l 1
 348 400 l 1
 531 674 l 1
 384 715 l 1
 307 548 l 1
 140 788 l 1
 48 645 l 1
 231 453 l 1
72 591 m 1
 44 495 l 1
 149 394 l 1
 131 9 l 1
 370 9 l 1
 351 46 l 1
 200 37 l 1
 214 440 l 1
 72 591 l 1
476 569 m 1
 380 348 l 1
 366 403 l 1
 476 569 l 1
EndSplineSet
EndChar

StartChar: Z
Encoding: 90 90 59
Width: 605
Flags: W
HStem: -220 20 343 29<513 540> 343 161 529 34 672 31<490 509> 1026 20G<552 552>
VStem: 32 55<160 289 289 289> 94 31
LayerCount: 2
Fore
SplineSet
353 69 m 1xdf
 417 -78 l 1
 463 73 l 1
 559 -134 l 1
 612 -56 l 1
 637 -73 l 1
 551 -198 l 1
 467 -14 l 1
 430 -187 l 1
 348 -5 l 1
 293 -139 l 1
 182 -25 l 1
 84 -220 l 1
 -13 -68 l 1
 12 -52 l 1
 81 -159 l 1
 174 26 l 1
 282 -84 l 1
 353 69 l 1xdf
385 747 m 1
 327 862 l 1
 235 725 l 1
 115 976 l 1
 3 852 l 1
 -19 872 l 1
 123 1030 l 1
 239 785 l 1
 332 924 l 1
 378 823 l 1
 552 1046 l 1
 633 863 l 1
 605 853 l 1
 551 958 l 1
 385 747 l 1
89 674 m 1
 509 703 l 1
 582 545 l 1
 336 376 l 1
 540 372 l 1
 557 230 l 1
 94 180 l 1
 104 366 l 1
 366 529 l 1
 140 521 l 1
 89 674 l 1
545 555 m 1
 490 672 l 1
 130 647 l 1
 161 552 l 1
 477 563 l 1
 133 349 l 1
 125 214 l 1
 524 256 l 1
 513 343 l 1
 241 348 l 1
 545 555 l 1
123 403 m 1
 91 610 l 1
 137 504 l 1xbf
 284 504 l 1
 123 403 l 1
32 289 m 1
 87 298 l 1
 87 160 l 1
 481 202 l 1
 490 151 l 1
 32 96 l 1
 32 289 l 1
513 413 m 1
 389 390 l 1
 518 477 l 1
 513 413 l 1
EndSplineSet
EndChar

StartChar: bracketleft
Encoding: 91 91 60
Width: 709
Flags: W
HStem: -296 21G<242 242>
VStem: 32 693
LayerCount: 2
Fore
SplineSet
725 881 m 1
 707 851 l 1
 506 970 l 1
 596 800 l 1
 262 651 l 1
 536 461 l 1
 247 367 l 1
 446 327 l 1
 147 58 l 1
 660 202 l 1
 371 -192 l 1
 705 -57 l 1
 721 -88 l 1
 242 -296 l 1
 556 132 l 1
 32 -12 l 1
 344 307 l 1
 67 357 l 1
 436 466 l 1
 152 666 l 1
 546 820 l 1
 396 1089 l 1
 725 881 l 1
EndSplineSet
EndChar

StartChar: bracketright
Encoding: 93 93 61
Width: 970
Flags: W
HStem: -22 30
LayerCount: 2
Fore
SplineSet
-3 844 m 1
 -3 887 l 1
 546 1114 l 1
 137 611 l 1
 446 656 l 1
 227 402 l 1
 880 302 l 1
 247 190 l 1
 556 -22 l 1
 228 -13 l 1
 260 -268 l 1
 -17 -86 l 1
 2 -57 l 1
 216 -197 l 1
 187 31 l 1
 441 8 l 1
 122 227 l 1
 660 302 l 1
 132 387 l 1
 346 601 l 1
 17 551 l 1
 411 1020 l 1
 -3 844 l 1
EndSplineSet
EndChar

